<?xml version="1.0" encoding="UTF-8"?>
<svg xmlns="http://www.w3.org/2000/svg" width="1360" height="940" viewBox="0 0 1360 940" role="img" aria-label="P&amp;ID · NFT recirculante de hierbas (Fase 2)">
<title>P&amp;ID · NFT recirculante de hierbas (Fase 2)</title>
<rect x="0" y="0" width="1360" height="940" fill="#ffffff"/>
<text x="24" y="34" font-family="Helvetica, Arial, 'Liberation Sans', sans-serif" font-size="18" font-weight="bold" fill="#1f2937">P&amp;ID · NFT recirculante de hierbas (Fase 2)</text>
<text x="24" y="54" font-family="Helvetica, Arial, 'Liberation Sans', sans-serif" font-size="12" fill="#6b7280">tambo 200 L → bomba diafragma 12 V (DC-first) → filtro malla 120 → manifold con válvulas → 8 líneas PVC sanitario 4&quot; a 2–3 % → retorno 2&quot; → tambo · pH/EC en el retorno · nodo-nft-v2</text>
<text x="1336" y="34" font-family="Helvetica, Arial, 'Liberation Sans', sans-serif" font-size="12" text-anchor="end" fill="#6b7280">HomeGreen · v1 · 2026-09</text>
<line x1="24" y1="64" x2="1336" y2="64" stroke="#1f2937" stroke-width="1"/>
<polyline points="455,150 1250,150" fill="none" stroke="#1f2937" stroke-width="3" stroke-linejoin="round" stroke-linecap="round"/>
<polygon points="858.5,150 846.5,154.5 846.5,145.5" fill="#1f2937" stroke="#1f2937" stroke-width="1" stroke-linejoin="round"/>
<text x="460" y="136" font-family="Helvetica, Arial, 'Liberation Sans', sans-serif" font-size="11" text-anchor="start" font-weight="normal" fill="#6b7280">manifold ¾&quot; · 1 válvula por línea (ajuste con botella 1 L + cronómetro)</text>
<polyline points="520,150 520,193" fill="none" stroke="#1f2937" stroke-width="2.5" stroke-linejoin="round" stroke-linecap="round"/>
<polygon points="514.4,168 520,176 525.6,168" fill="#ffffff" stroke="#1f2937" stroke-width="1.6" stroke-linejoin="round"/>
<polygon points="514.4,184 520,176 525.6,184" fill="#ffffff" stroke="#1f2937" stroke-width="1.6" stroke-linejoin="round"/>
<line x1="512.8" y1="176" x2="527.2" y2="176" stroke="#1f2937" stroke-width="2.2" stroke-linecap="round"/>
<circle cx="520" cy="176" r="2.2" fill="#1f2937" stroke="#1f2937" stroke-width="1.5"/>
<rect x="507" y="205" width="26" height="315" rx="6" fill="#f3f4f6" stroke="#1f2937" stroke-width="1.8"/>
<circle cx="520" cy="233" r="6.5" fill="#ffffff" stroke="#1f2937" stroke-width="1.2"/>
<circle cx="520" cy="283" r="6.5" fill="#ffffff" stroke="#1f2937" stroke-width="1.2"/>
<circle cx="520" cy="333" r="6.5" fill="#ffffff" stroke="#1f2937" stroke-width="1.2"/>
<circle cx="520" cy="383" r="6.5" fill="#ffffff" stroke="#1f2937" stroke-width="1.2"/>
<circle cx="520" cy="433" r="6.5" fill="#ffffff" stroke="#1f2937" stroke-width="1.2"/>
<circle cx="520" cy="483" r="6.5" fill="#ffffff" stroke="#1f2937" stroke-width="1.2"/>
<text x="520" y="534" font-family="Helvetica, Arial, 'Liberation Sans', sans-serif" font-size="11" text-anchor="middle" font-weight="bold" fill="#1f2937">L1</text>
<polyline points="520,520 520,560" fill="none" stroke="#1f2937" stroke-width="2.5" stroke-linejoin="round" stroke-linecap="round"/>
<polyline points="624.3,150 624.3,193" fill="none" stroke="#1f2937" stroke-width="2.5" stroke-linejoin="round" stroke-linecap="round"/>
<polygon points="618.7,168 624.3,176 629.9,168" fill="#ffffff" stroke="#1f2937" stroke-width="1.6" stroke-linejoin="round"/>
<polygon points="618.7,184 624.3,176 629.9,184" fill="#ffffff" stroke="#1f2937" stroke-width="1.6" stroke-linejoin="round"/>
<line x1="617.1" y1="176" x2="631.5" y2="176" stroke="#1f2937" stroke-width="2.2" stroke-linecap="round"/>
<circle cx="624.3" cy="176" r="2.2" fill="#1f2937" stroke="#1f2937" stroke-width="1.5"/>
<rect x="611.3" y="205" width="26" height="315" rx="6" fill="#f3f4f6" stroke="#1f2937" stroke-width="1.8"/>
<circle cx="624.3" cy="233" r="6.5" fill="#ffffff" stroke="#1f2937" stroke-width="1.2"/>
<circle cx="624.3" cy="283" r="6.5" fill="#ffffff" stroke="#1f2937" stroke-width="1.2"/>
<circle cx="624.3" cy="333" r="6.5" fill="#ffffff" stroke="#1f2937" stroke-width="1.2"/>
<circle cx="624.3" cy="383" r="6.5" fill="#ffffff" stroke="#1f2937" stroke-width="1.2"/>
<circle cx="624.3" cy="433" r="6.5" fill="#ffffff" stroke="#1f2937" stroke-width="1.2"/>
<circle cx="624.3" cy="483" r="6.5" fill="#ffffff" stroke="#1f2937" stroke-width="1.2"/>
<text x="624.3" y="534" font-family="Helvetica, Arial, 'Liberation Sans', sans-serif" font-size="11" text-anchor="middle" font-weight="bold" fill="#1f2937">L2</text>
<polyline points="624.3,520 624.3,560" fill="none" stroke="#1f2937" stroke-width="2.5" stroke-linejoin="round" stroke-linecap="round"/>
<polyline points="728.6,150 728.6,193" fill="none" stroke="#1f2937" stroke-width="2.5" stroke-linejoin="round" stroke-linecap="round"/>
<polygon points="723,168 728.6,176 734.2,168" fill="#ffffff" stroke="#1f2937" stroke-width="1.6" stroke-linejoin="round"/>
<polygon points="723,184 728.6,176 734.2,184" fill="#ffffff" stroke="#1f2937" stroke-width="1.6" stroke-linejoin="round"/>
<line x1="721.4" y1="176" x2="735.8" y2="176" stroke="#1f2937" stroke-width="2.2" stroke-linecap="round"/>
<circle cx="728.6" cy="176" r="2.2" fill="#1f2937" stroke="#1f2937" stroke-width="1.5"/>
<rect x="715.6" y="205" width="26" height="315" rx="6" fill="#f3f4f6" stroke="#1f2937" stroke-width="1.8"/>
<circle cx="728.6" cy="233" r="6.5" fill="#ffffff" stroke="#1f2937" stroke-width="1.2"/>
<circle cx="728.6" cy="283" r="6.5" fill="#ffffff" stroke="#1f2937" stroke-width="1.2"/>
<circle cx="728.6" cy="333" r="6.5" fill="#ffffff" stroke="#1f2937" stroke-width="1.2"/>
<circle cx="728.6" cy="383" r="6.5" fill="#ffffff" stroke="#1f2937" stroke-width="1.2"/>
<circle cx="728.6" cy="433" r="6.5" fill="#ffffff" stroke="#1f2937" stroke-width="1.2"/>
<circle cx="728.6" cy="483" r="6.5" fill="#ffffff" stroke="#1f2937" stroke-width="1.2"/>
<text x="728.6" y="534" font-family="Helvetica, Arial, 'Liberation Sans', sans-serif" font-size="11" text-anchor="middle" font-weight="bold" fill="#1f2937">L3</text>
<polyline points="728.6,520 728.6,560" fill="none" stroke="#1f2937" stroke-width="2.5" stroke-linejoin="round" stroke-linecap="round"/>
<polyline points="832.9,150 832.9,193" fill="none" stroke="#1f2937" stroke-width="2.5" stroke-linejoin="round" stroke-linecap="round"/>
<polygon points="827.3,168 832.9,176 838.5,168" fill="#ffffff" stroke="#1f2937" stroke-width="1.6" stroke-linejoin="round"/>
<polygon points="827.3,184 832.9,176 838.5,184" fill="#ffffff" stroke="#1f2937" stroke-width="1.6" stroke-linejoin="round"/>
<line x1="825.7" y1="176" x2="840.1" y2="176" stroke="#1f2937" stroke-width="2.2" stroke-linecap="round"/>
<circle cx="832.9" cy="176" r="2.2" fill="#1f2937" stroke="#1f2937" stroke-width="1.5"/>
<rect x="819.9" y="205" width="26" height="315" rx="6" fill="#f3f4f6" stroke="#1f2937" stroke-width="1.8"/>
<circle cx="832.9" cy="233" r="6.5" fill="#ffffff" stroke="#1f2937" stroke-width="1.2"/>
<circle cx="832.9" cy="283" r="6.5" fill="#ffffff" stroke="#1f2937" stroke-width="1.2"/>
<circle cx="832.9" cy="333" r="6.5" fill="#ffffff" stroke="#1f2937" stroke-width="1.2"/>
<circle cx="832.9" cy="383" r="6.5" fill="#ffffff" stroke="#1f2937" stroke-width="1.2"/>
<circle cx="832.9" cy="433" r="6.5" fill="#ffffff" stroke="#1f2937" stroke-width="1.2"/>
<circle cx="832.9" cy="483" r="6.5" fill="#ffffff" stroke="#1f2937" stroke-width="1.2"/>
<text x="832.9" y="534" font-family="Helvetica, Arial, 'Liberation Sans', sans-serif" font-size="11" text-anchor="middle" font-weight="bold" fill="#1f2937">L4</text>
<polyline points="832.9,520 832.9,560" fill="none" stroke="#1f2937" stroke-width="2.5" stroke-linejoin="round" stroke-linecap="round"/>
<polyline points="937.1,150 937.1,193" fill="none" stroke="#1f2937" stroke-width="2.5" stroke-linejoin="round" stroke-linecap="round"/>
<polygon points="931.5,168 937.1,176 942.7,168" fill="#ffffff" stroke="#1f2937" stroke-width="1.6" stroke-linejoin="round"/>
<polygon points="931.5,184 937.1,176 942.7,184" fill="#ffffff" stroke="#1f2937" stroke-width="1.6" stroke-linejoin="round"/>
<line x1="929.9" y1="176" x2="944.3" y2="176" stroke="#1f2937" stroke-width="2.2" stroke-linecap="round"/>
<circle cx="937.1" cy="176" r="2.2" fill="#1f2937" stroke="#1f2937" stroke-width="1.5"/>
<rect x="924.1" y="205" width="26" height="315" rx="6" fill="#f3f4f6" stroke="#1f2937" stroke-width="1.8"/>
<circle cx="937.1" cy="233" r="6.5" fill="#ffffff" stroke="#1f2937" stroke-width="1.2"/>
<circle cx="937.1" cy="283" r="6.5" fill="#ffffff" stroke="#1f2937" stroke-width="1.2"/>
<circle cx="937.1" cy="333" r="6.5" fill="#ffffff" stroke="#1f2937" stroke-width="1.2"/>
<circle cx="937.1" cy="383" r="6.5" fill="#ffffff" stroke="#1f2937" stroke-width="1.2"/>
<circle cx="937.1" cy="433" r="6.5" fill="#ffffff" stroke="#1f2937" stroke-width="1.2"/>
<circle cx="937.1" cy="483" r="6.5" fill="#ffffff" stroke="#1f2937" stroke-width="1.2"/>
<text x="937.1" y="534" font-family="Helvetica, Arial, 'Liberation Sans', sans-serif" font-size="11" text-anchor="middle" font-weight="bold" fill="#1f2937">L5</text>
<polyline points="937.1,520 937.1,560" fill="none" stroke="#1f2937" stroke-width="2.5" stroke-linejoin="round" stroke-linecap="round"/>
<polyline points="1041.4,150 1041.4,193" fill="none" stroke="#1f2937" stroke-width="2.5" stroke-linejoin="round" stroke-linecap="round"/>
<polygon points="1035.8,168 1041.4,176 1047,168" fill="#ffffff" stroke="#1f2937" stroke-width="1.6" stroke-linejoin="round"/>
<polygon points="1035.8,184 1041.4,176 1047,184" fill="#ffffff" stroke="#1f2937" stroke-width="1.6" stroke-linejoin="round"/>
<line x1="1034.2" y1="176" x2="1048.6" y2="176" stroke="#1f2937" stroke-width="2.2" stroke-linecap="round"/>
<circle cx="1041.4" cy="176" r="2.2" fill="#1f2937" stroke="#1f2937" stroke-width="1.5"/>
<rect x="1028.4" y="205" width="26" height="315" rx="6" fill="#f3f4f6" stroke="#1f2937" stroke-width="1.8"/>
<circle cx="1041.4" cy="233" r="6.5" fill="#ffffff" stroke="#1f2937" stroke-width="1.2"/>
<circle cx="1041.4" cy="283" r="6.5" fill="#ffffff" stroke="#1f2937" stroke-width="1.2"/>
<circle cx="1041.4" cy="333" r="6.5" fill="#ffffff" stroke="#1f2937" stroke-width="1.2"/>
<circle cx="1041.4" cy="383" r="6.5" fill="#ffffff" stroke="#1f2937" stroke-width="1.2"/>
<circle cx="1041.4" cy="433" r="6.5" fill="#ffffff" stroke="#1f2937" stroke-width="1.2"/>
<circle cx="1041.4" cy="483" r="6.5" fill="#ffffff" stroke="#1f2937" stroke-width="1.2"/>
<text x="1041.4" y="534" font-family="Helvetica, Arial, 'Liberation Sans', sans-serif" font-size="11" text-anchor="middle" font-weight="bold" fill="#1f2937">L6</text>
<polyline points="1041.4,520 1041.4,560" fill="none" stroke="#1f2937" stroke-width="2.5" stroke-linejoin="round" stroke-linecap="round"/>
<polyline points="1145.7,150 1145.7,193" fill="none" stroke="#1f2937" stroke-width="2.5" stroke-linejoin="round" stroke-linecap="round"/>
<polygon points="1140.1,168 1145.7,176 1151.3,168" fill="#ffffff" stroke="#1f2937" stroke-width="1.6" stroke-linejoin="round"/>
<polygon points="1140.1,184 1145.7,176 1151.3,184" fill="#ffffff" stroke="#1f2937" stroke-width="1.6" stroke-linejoin="round"/>
<line x1="1138.5" y1="176" x2="1152.9" y2="176" stroke="#1f2937" stroke-width="2.2" stroke-linecap="round"/>
<circle cx="1145.7" cy="176" r="2.2" fill="#1f2937" stroke="#1f2937" stroke-width="1.5"/>
<rect x="1132.7" y="205" width="26" height="315" rx="6" fill="#f3f4f6" stroke="#1f2937" stroke-width="1.8"/>
<circle cx="1145.7" cy="233" r="6.5" fill="#ffffff" stroke="#1f2937" stroke-width="1.2"/>
<circle cx="1145.7" cy="283" r="6.5" fill="#ffffff" stroke="#1f2937" stroke-width="1.2"/>
<circle cx="1145.7" cy="333" r="6.5" fill="#ffffff" stroke="#1f2937" stroke-width="1.2"/>
<circle cx="1145.7" cy="383" r="6.5" fill="#ffffff" stroke="#1f2937" stroke-width="1.2"/>
<circle cx="1145.7" cy="433" r="6.5" fill="#ffffff" stroke="#1f2937" stroke-width="1.2"/>
<circle cx="1145.7" cy="483" r="6.5" fill="#ffffff" stroke="#1f2937" stroke-width="1.2"/>
<text x="1145.7" y="534" font-family="Helvetica, Arial, 'Liberation Sans', sans-serif" font-size="11" text-anchor="middle" font-weight="bold" fill="#1f2937">L7</text>
<polyline points="1145.7,520 1145.7,560" fill="none" stroke="#1f2937" stroke-width="2.5" stroke-linejoin="round" stroke-linecap="round"/>
<polyline points="1250,150 1250,193" fill="none" stroke="#1f2937" stroke-width="2.5" stroke-linejoin="round" stroke-linecap="round"/>
<polygon points="1244.4,168 1250,176 1255.6,168" fill="#ffffff" stroke="#1f2937" stroke-width="1.6" stroke-linejoin="round"/>
<polygon points="1244.4,184 1250,176 1255.6,184" fill="#ffffff" stroke="#1f2937" stroke-width="1.6" stroke-linejoin="round"/>
<line x1="1242.8" y1="176" x2="1257.2" y2="176" stroke="#1f2937" stroke-width="2.2" stroke-linecap="round"/>
<circle cx="1250" cy="176" r="2.2" fill="#1f2937" stroke="#1f2937" stroke-width="1.5"/>
<rect x="1237" y="205" width="26" height="315" rx="6" fill="#f3f4f6" stroke="#1f2937" stroke-width="1.8"/>
<circle cx="1250" cy="233" r="6.5" fill="#ffffff" stroke="#1f2937" stroke-width="1.2"/>
<circle cx="1250" cy="283" r="6.5" fill="#ffffff" stroke="#1f2937" stroke-width="1.2"/>
<circle cx="1250" cy="333" r="6.5" fill="#ffffff" stroke="#1f2937" stroke-width="1.2"/>
<circle cx="1250" cy="383" r="6.5" fill="#ffffff" stroke="#1f2937" stroke-width="1.2"/>
<circle cx="1250" cy="433" r="6.5" fill="#ffffff" stroke="#1f2937" stroke-width="1.2"/>
<circle cx="1250" cy="483" r="6.5" fill="#ffffff" stroke="#1f2937" stroke-width="1.2"/>
<text x="1250" y="534" font-family="Helvetica, Arial, 'Liberation Sans', sans-serif" font-size="11" text-anchor="middle" font-weight="bold" fill="#1f2937">L8</text>
<polyline points="1250,520 1250,560" fill="none" stroke="#1f2937" stroke-width="2.5" stroke-linejoin="round" stroke-linecap="round"/>
<text x="500" y="245" font-family="Helvetica, Arial, 'Liberation Sans', sans-serif" font-size="11" text-anchor="end" font-weight="normal" fill="#6b7280">8 líneas × 3 m</text>
<text x="500" y="260" font-family="Helvetica, Arial, 'Liberation Sans', sans-serif" font-size="11" text-anchor="end" font-weight="normal" fill="#6b7280">PVC SANITARIO 4&quot;</text>
<text x="500" y="275" font-family="Helvetica, Arial, 'Liberation Sans', sans-serif" font-size="11" text-anchor="end" font-weight="normal" fill="#6b7280">Amanco blanco</text>
<text x="500" y="290" font-family="Helvetica, Arial, 'Liberation Sans', sans-serif" font-size="11" text-anchor="end" font-weight="normal" fill="#6b7280">$415 / 6 m (½ tramo por línea)</text>
<text x="500" y="305" font-family="Helvetica, Arial, 'Liberation Sans', sans-serif" font-size="11" text-anchor="end" font-weight="normal" fill="#6b7280">NO hidráulico C-40 ($1,401)</text>
<text x="500" y="320" font-family="Helvetica, Arial, 'Liberation Sans', sans-serif" font-size="11" text-anchor="end" font-weight="normal" fill="#6b7280"></text>
<text x="500" y="335" font-family="Helvetica, Arial, 'Liberation Sans', sans-serif" font-size="11" text-anchor="end" font-weight="normal" fill="#6b7280">10 sitios / línea</text>
<text x="500" y="350" font-family="Helvetica, Arial, 'Liberation Sans', sans-serif" font-size="11" text-anchor="end" font-weight="normal" fill="#6b7280">canastilla 3&quot; ($12.80)</text>
<text x="500" y="365" font-family="Helvetica, Arial, 'Liberation Sans', sans-serif" font-size="11" text-anchor="end" font-weight="normal" fill="#6b7280">centros: 20 cm albahaca / arúgula</text>
<text x="500" y="380" font-family="Helvetica, Arial, 'Liberation Sans', sans-serif" font-size="11" text-anchor="end" font-weight="normal" fill="#6b7280">15 cm cilantro</text>
<text x="500" y="395" font-family="Helvetica, Arial, 'Liberation Sans', sans-serif" font-size="11" text-anchor="end" font-weight="normal" fill="#6b7280">sierra copa del CUERPO de la</text>
<text x="500" y="410" font-family="Helvetica, Arial, 'Liberation Sans', sans-serif" font-size="11" text-anchor="end" font-weight="normal" fill="#6b7280">canastilla (medir antes; desbarbar)</text>
<text x="500" y="425" font-family="Helvetica, Arial, 'Liberation Sans', sans-serif" font-size="11" text-anchor="end" font-weight="normal" fill="#6b7280"></text>
<text x="500" y="440" font-family="Helvetica, Arial, 'Liberation Sans', sans-serif" font-size="11" text-anchor="end" font-weight="normal" fill="#6b7280">pendiente 2–3 % (2–3 cm / m)</text>
<text x="500" y="455" font-family="Helvetica, Arial, 'Liberation Sans', sans-serif" font-size="11" text-anchor="end" font-weight="normal" fill="#6b7280">soportes cada ≤ 1.5 m (sin panza)</text>
<text x="500" y="470" font-family="Helvetica, Arial, 'Liberation Sans', sans-serif" font-size="11" text-anchor="end" font-weight="normal" fill="#6b7280">entrada ALTA · salida BAJA</text>
<line x1="310" y1="455" x2="490" y2="460" stroke="#b45309" stroke-width="2" stroke-linecap="round"/>
<text x="400" y="449" font-family="Helvetica, Arial, 'Liberation Sans', sans-serif" font-size="11" text-anchor="middle" font-weight="bold" fill="#b45309">2–3 %</text>
<text x="1268" y="225" font-family="Helvetica, Arial, 'Liberation Sans', sans-serif" font-size="11" text-anchor="start" font-weight="bold" fill="#2e7d32">caudal por línea</text>
<text x="1268" y="241" font-family="Helvetica, Arial, 'Liberation Sans', sans-serif" font-size="14" text-anchor="start" font-weight="bold" fill="#2e7d32">1–2 L/min</text>
<text x="1268" y="259" font-family="Helvetica, Arial, 'Liberation Sans', sans-serif" font-size="11" text-anchor="start" font-weight="normal" fill="#2e7d32">total 8–16 L/min</text>
<text x="1268" y="275" font-family="Helvetica, Arial, 'Liberation Sans', sans-serif" font-size="11" text-anchor="start" font-weight="normal" fill="#2e7d32">a 1–2 m de columna</text>
<polyline points="1250,560 330,560" fill="none" stroke="#1f2937" stroke-width="3" stroke-linejoin="round" stroke-linecap="round"/>
<polygon points="784,560 796,555.5 796,564.5" fill="#1f2937" stroke="#1f2937" stroke-width="1" stroke-linejoin="round"/>
<text x="900" y="578" font-family="Helvetica, Arial, 'Liberation Sans', sans-serif" font-size="11" text-anchor="start" font-weight="normal" fill="#6b7280">retorno por gravedad · PVC sanitario 2&quot; (codos 90° $28.80 · 45° $18.31)</text>
<circle cx="700" cy="560" r="15" fill="#ffffff" stroke="#2e7d32" stroke-width="2"/>
<text x="700" y="563.6" font-family="Helvetica, Arial, 'Liberation Sans', sans-serif" font-size="10" text-anchor="middle" font-weight="bold" fill="#2e7d32">pH</text>
<text x="700" y="589" font-family="Helvetica, Arial, 'Liberation Sans', sans-serif" font-size="12" text-anchor="middle" font-weight="bold" fill="#1f2937">AT-1</text>
<text x="700" y="603" font-family="Helvetica, Arial, 'Liberation Sans', sans-serif" font-size="11" text-anchor="middle" font-weight="normal" fill="#6b7280">pH 5.8–6.2</text>
<circle cx="600" cy="560" r="15" fill="#ffffff" stroke="#2e7d32" stroke-width="2"/>
<text x="600" y="563.6" font-family="Helvetica, Arial, 'Liberation Sans', sans-serif" font-size="10" text-anchor="middle" font-weight="bold" fill="#2e7d32">EC</text>
<text x="600" y="589" font-family="Helvetica, Arial, 'Liberation Sans', sans-serif" font-size="12" text-anchor="middle" font-weight="bold" fill="#1f2937">AT-2</text>
<text x="600" y="603" font-family="Helvetica, Arial, 'Liberation Sans', sans-serif" font-size="11" text-anchor="middle" font-weight="normal" fill="#6b7280">1.2–1.8 mS/cm</text>
<text x="430" y="600" font-family="Helvetica, Arial, 'Liberation Sans', sans-serif" font-size="11" text-anchor="start" font-weight="normal" fill="#6b7280">sondas en el RETORNO (solución mezclada),</text>
<text x="430" y="615" font-family="Helvetica, Arial, 'Liberation Sans', sans-serif" font-size="11" text-anchor="start" font-weight="normal" fill="#6b7280">nunca junto a la dosificación</text>
<path d="M150,683.6 L150,782 Q150,800 168,800 L312,800 Q330,800 330,782 L330,683.6 Z" fill="#2e7d32" fill-opacity="0.16" stroke="none"/>
<line x1="150" y1="683.6" x2="330" y2="683.6" stroke="#2e7d32" stroke-width="1.2" stroke-linecap="round" stroke-dasharray="5 3"/>
<path d="M150,600 L150,782 Q150,800 168,800 L312,800 Q330,800 330,782 L330,600 L330,600 L150,600 Z" fill="none" stroke="#1f2937" stroke-width="2" stroke-linecap="round" stroke-linejoin="round"/>
<text x="240" y="816" font-family="Helvetica, Arial, 'Liberation Sans', sans-serif" font-size="13" text-anchor="middle" font-weight="bold" fill="#1f2937">TK-2 · Tambo 200 L</text>
<text x="240" y="832" font-family="Helvetica, Arial, 'Liberation Sans', sans-serif" font-size="11" text-anchor="middle" font-weight="normal" fill="#6b7280">HDPE grado alimenticio ($450–900)</text>
<text x="240" y="847" font-family="Helvetica, Arial, 'Liberation Sans', sans-serif" font-size="11" text-anchor="middle" font-weight="normal" fill="#6b7280">tapado y a la sombra · 18–22 °C</text>
<text x="240" y="862" font-family="Helvetica, Arial, 'Liberation Sans', sans-serif" font-size="11" text-anchor="middle" font-weight="normal" fill="#6b7280">&gt; 25 °C cae el O₂ disuelto</text>
<text x="240" y="877" font-family="Helvetica, Arial, 'Liberation Sans', sans-serif" font-size="11" text-anchor="middle" font-weight="normal" fill="#6b7280">cambio completo cada 2–3 semanas</text>
<polyline points="330,560 300,560 300,600" fill="none" stroke="#1f2937" stroke-width="2.5" stroke-linejoin="round" stroke-linecap="round"/>
<polygon points="300,586 295.5,574 304.5,574" fill="#1f2937" stroke="#1f2937" stroke-width="1" stroke-linejoin="round"/>
<circle cx="200" cy="660" r="14" fill="#ffffff" stroke="#1f2937" stroke-width="2"/>
<text x="200" y="664" font-family="Helvetica, Arial, 'Liberation Sans', sans-serif" font-size="11" text-anchor="middle" font-weight="bold" fill="#1f2937">T</text>
<text x="222" y="664" font-family="Helvetica, Arial, 'Liberation Sans', sans-serif" font-size="12" text-anchor="start" font-weight="bold" fill="#1f2937">TT-2</text>
<text x="222" y="678" font-family="Helvetica, Arial, 'Liberation Sans', sans-serif" font-size="11" text-anchor="start" font-weight="normal" fill="#6b7280">DS18B20</text>
<circle cx="180" cy="570" r="13" fill="#ffffff" stroke="#1f2937" stroke-width="2"/>
<text x="180" y="574" font-family="Helvetica, Arial, 'Liberation Sans', sans-serif" font-size="11" text-anchor="middle" font-weight="bold" fill="#1f2937">L</text>
<text x="159" y="574" font-family="Helvetica, Arial, 'Liberation Sans', sans-serif" font-size="12" text-anchor="end" font-weight="bold" fill="#1f2937">LT-2</text>
<line x1="180" y1="583" x2="180" y2="600" stroke="#1f2937" stroke-width="1.4" stroke-linecap="round" stroke-dasharray="3 2"/>
<text x="200" y="566" font-family="Helvetica, Arial, 'Liberation Sans', sans-serif" font-size="10" text-anchor="start" font-weight="normal" fill="#6b7280">nivel del tambo (interlock)</text>
<text x="200" y="579" font-family="Helvetica, Arial, 'Liberation Sans', sans-serif" font-size="10" text-anchor="start" font-weight="normal" fill="#b45309">[POR VERIFICAR: flotador o JSN-SR04T n.º 2, no está en bom/fase2]</text>
<polyline points="330,760 380,760" fill="none" stroke="#1f2937" stroke-width="2.5" stroke-linejoin="round" stroke-linecap="round"/>
<polygon points="361,760 349,764.5 349,755.5" fill="#1f2937" stroke="#1f2937" stroke-width="1" stroke-linejoin="round"/>
<polygon points="370,753 380,760 370,767" fill="#ffffff" stroke="#1f2937" stroke-width="1.6" stroke-linejoin="round"/>
<polygon points="390,753 380,760 390,767" fill="#ffffff" stroke="#1f2937" stroke-width="1.6" stroke-linejoin="round"/>
<line x1="380" y1="751" x2="380" y2="769" stroke="#1f2937" stroke-width="2.2" stroke-linecap="round"/>
<circle cx="380" cy="760" r="2.2" fill="#1f2937" stroke="#1f2937" stroke-width="1.5"/>
<text x="380" y="784" font-family="Helvetica, Arial, 'Liberation Sans', sans-serif" font-size="12" text-anchor="middle" font-weight="bold" fill="#1f2937">V-0</text>
<text x="380" y="798" font-family="Helvetica, Arial, 'Liberation Sans', sans-serif" font-size="11" text-anchor="middle" font-weight="normal" fill="#6b7280">paso</text>
<polyline points="391,760 420,760 420,720 450,720" fill="none" stroke="#1f2937" stroke-width="2.5" stroke-linejoin="round" stroke-linecap="round"/>
<polyline points="420,760 420,800 450,800" fill="none" stroke="#1f2937" stroke-width="2.5" stroke-linejoin="round" stroke-linecap="round"/>
<circle cx="468" cy="720" r="16" fill="#ffffff" stroke="#1f2937" stroke-width="2"/>
<polygon points="480.5,720 461.6,727.6 461.6,712.4" fill="#1f2937" stroke="#1f2937" stroke-width="1" stroke-linejoin="round"/>
<text x="468" y="750" font-family="Helvetica, Arial, 'Liberation Sans', sans-serif" font-size="12" text-anchor="middle" font-weight="bold" fill="#1f2937">P-1</text>
<circle cx="468" cy="800" r="16" fill="#ffffff" stroke="#1f2937" stroke-width="2"/>
<polygon points="480.5,800 461.6,807.6 461.6,792.4" fill="#1f2937" stroke="#1f2937" stroke-width="1" stroke-linejoin="round"/>
<text x="468" y="830" font-family="Helvetica, Arial, 'Liberation Sans', sans-serif" font-size="12" text-anchor="middle" font-weight="bold" fill="#1f2937">P-2</text>
<polyline points="484,720 520,720 520,760" fill="none" stroke="#1f2937" stroke-width="2.5" stroke-linejoin="round" stroke-linecap="round"/>
<polyline points="484,800 520,800 520,760" fill="none" stroke="#1f2937" stroke-width="2.5" stroke-linejoin="round" stroke-linecap="round"/>
<text x="540" y="708" font-family="Helvetica, Arial, 'Liberation Sans', sans-serif" font-size="11" text-anchor="start" font-weight="normal" fill="#6b7280">P-1 principal + P-2 respaldo: diafragma 12 V 40–60 W (4–6 L/min c/u)</text>
<text x="540" y="723" font-family="Helvetica, Arial, 'Liberation Sans', sans-serif" font-size="11" text-anchor="start" font-weight="normal" fill="#6b7280">en bus de batería LiFePO4 12.8 V 100 Ah → 28–30 h sin CFE (DC-first)</text>
<text x="540" y="738" font-family="Helvetica, Arial, 'Liberation Sans', sans-serif" font-size="11" text-anchor="start" font-weight="normal" fill="#6b7280">relevador de transferencia por ESP32 · ver electrico/bus-dc-first.svg</text>
<text x="540" y="753" font-family="Helvetica, Arial, 'Liberation Sans', sans-serif" font-size="11" text-anchor="start" font-weight="normal" fill="#6b7280">bomba 127 V (sumergible 4500 LPH, 65 W) SOLO llenado / purga / trasiego</text>
<polyline points="520,760 600,760" fill="none" stroke="#1f2937" stroke-width="2.5" stroke-linejoin="round" stroke-linecap="round"/>
<polygon points="566,760 554,764.5 554,755.5" fill="#1f2937" stroke="#1f2937" stroke-width="1" stroke-linejoin="round"/>
<rect x="610" y="745" width="44" height="30" rx="0" fill="#ffffff" stroke="#1f2937" stroke-width="2"/>
<path d="M614,767.5 L620,752.5 L626,767.5 L632,752.5 L638,767.5 L644,752.5 L650,767.5 " fill="none" stroke="#1f2937" stroke-width="1.3" stroke-linecap="round" stroke-linejoin="round"/>
<text x="632" y="789" font-family="Helvetica, Arial, 'Liberation Sans', sans-serif" font-size="12" text-anchor="middle" font-weight="bold" fill="#1f2937">F-1</text>
<text x="632" y="803" font-family="Helvetica, Arial, 'Liberation Sans', sans-serif" font-size="11" text-anchor="middle" font-weight="normal" fill="#6b7280">malla 120 mesh 1&quot; ($230)</text>
<text x="632" y="818" font-family="Helvetica, Arial, 'Liberation Sans', sans-serif" font-size="11" text-anchor="middle" font-weight="normal" fill="#6b7280">lavar cada semana</text>
<polyline points="654,760 720,760" fill="none" stroke="#1f2937" stroke-width="2.5" stroke-linejoin="round" stroke-linecap="round"/>
<polygon points="693,760 681,764.5 681,755.5" fill="#1f2937" stroke="#1f2937" stroke-width="1" stroke-linejoin="round"/>
<circle cx="748" cy="760" r="15" fill="#ffffff" stroke="#2e7d32" stroke-width="2"/>
<text x="748" y="764" font-family="Helvetica, Arial, 'Liberation Sans', sans-serif" font-size="11" text-anchor="middle" font-weight="bold" fill="#2e7d32">F</text>
<text x="748" y="789" font-family="Helvetica, Arial, 'Liberation Sans', sans-serif" font-size="12" text-anchor="middle" font-weight="bold" fill="#1f2937">FT-1</text>
<text x="748" y="803" font-family="Helvetica, Arial, 'Liberation Sans', sans-serif" font-size="11" text-anchor="middle" font-weight="normal" fill="#6b7280">YF-S201 · 450 pulsos/L</text>
<text x="748" y="818" font-family="Helvetica, Arial, 'Liberation Sans', sans-serif" font-size="11" text-anchor="middle" font-weight="normal" fill="#6b7280">alarma: bomba ON y &lt; 2 L/min 60 s</text>
<polyline points="763,760 820,760 820,660" fill="none" stroke="#1f2937" stroke-width="2.5" stroke-linejoin="round" stroke-linecap="round"/>
<polygon points="797.5,760 785.5,764.5 785.5,755.5" fill="#1f2937" stroke="#1f2937" stroke-width="1" stroke-linejoin="round"/>
<polygon points="813.7,691 820,700 826.3,691" fill="#ffffff" stroke="#1f2937" stroke-width="1.6" stroke-linejoin="round"/>
<polygon points="813.7,709 820,700 826.3,709" fill="#ffffff" stroke="#1f2937" stroke-width="1.6" stroke-linejoin="round"/>
<line x1="811.9" y1="700" x2="828.1" y2="700" stroke="#1f2937" stroke-width="2.2" stroke-linecap="round"/>
<circle cx="820" cy="700" r="2.2" fill="#1f2937" stroke="#1f2937" stroke-width="1.5"/>
<text x="834" y="704" font-family="Helvetica, Arial, 'Liberation Sans', sans-serif" font-size="10" text-anchor="start" font-weight="normal" fill="#6b7280">V-8 purga a coladera / bypass</text>
<text x="834" y="716" font-family="Helvetica, Arial, 'Liberation Sans', sans-serif" font-size="10" text-anchor="start" font-weight="normal" fill="#6b7280">(cambio de solución)</text>
<polyline points="820,660 820,630 455,630 455,150" fill="none" stroke="#1f2937" stroke-width="2.5" stroke-linejoin="round" stroke-linecap="round"/>
<polygon points="631.5,630 643.5,625.5 643.5,634.5" fill="#1f2937" stroke="#1f2937" stroke-width="1" stroke-linejoin="round"/>
<polygon points="455,384 459.5,396 450.5,396" fill="#1f2937" stroke="#1f2937" stroke-width="1" stroke-linejoin="round"/>
<text x="462" y="622" font-family="Helvetica, Arial, 'Liberation Sans', sans-serif" font-size="11" text-anchor="start" font-weight="normal" fill="#6b7280">subida ¾&quot; al manifold</text>
<text x="462" y="240" font-family="Helvetica, Arial, 'Liberation Sans', sans-serif" font-size="11" text-anchor="start" font-weight="normal" fill="#6b7280">distribución ½&quot;–¾&quot;</text>
<rect x="40" y="628" width="30" height="26" rx="3" fill="#f3f4f6" stroke="#1f2937" stroke-width="1.3"/>
<text x="55" y="645" font-family="Helvetica, Arial, 'Liberation Sans', sans-serif" font-size="10" text-anchor="middle" font-weight="bold" fill="#1f2937">A</text>
<circle cx="102" cy="640" r="9" fill="#ffffff" stroke="#1f2937" stroke-width="1.6"/>
<circle cx="102" cy="640" r="3" fill="#1f2937" stroke="#1f2937" stroke-width="1.5"/>
<polyline points="70,640 93,640" fill="none" stroke="#1f2937" stroke-width="1.4" stroke-linejoin="round" stroke-linecap="round"/>
<polyline points="111,640 150,640" fill="none" stroke="#1f2937" stroke-width="1.4" stroke-linejoin="round" stroke-linecap="round" stroke-dasharray="2 2"/>
<rect x="40" y="678" width="30" height="26" rx="3" fill="#f3f4f6" stroke="#1f2937" stroke-width="1.3"/>
<text x="55" y="695" font-family="Helvetica, Arial, 'Liberation Sans', sans-serif" font-size="10" text-anchor="middle" font-weight="bold" fill="#1f2937">B</text>
<circle cx="102" cy="690" r="9" fill="#ffffff" stroke="#1f2937" stroke-width="1.6"/>
<circle cx="102" cy="690" r="3" fill="#1f2937" stroke="#1f2937" stroke-width="1.5"/>
<polyline points="70,690 93,690" fill="none" stroke="#1f2937" stroke-width="1.4" stroke-linejoin="round" stroke-linecap="round"/>
<polyline points="111,690 150,690" fill="none" stroke="#1f2937" stroke-width="1.4" stroke-linejoin="round" stroke-linecap="round" stroke-dasharray="2 2"/>
<rect x="40" y="728" width="30" height="26" rx="3" fill="#f3f4f6" stroke="#1f2937" stroke-width="1.3"/>
<text x="55" y="745" font-family="Helvetica, Arial, 'Liberation Sans', sans-serif" font-size="10" text-anchor="middle" font-weight="bold" fill="#1f2937">pH−</text>
<circle cx="102" cy="740" r="9" fill="#ffffff" stroke="#1f2937" stroke-width="1.6"/>
<circle cx="102" cy="740" r="3" fill="#1f2937" stroke="#1f2937" stroke-width="1.5"/>
<polyline points="70,740 93,740" fill="none" stroke="#1f2937" stroke-width="1.4" stroke-linejoin="round" stroke-linecap="round"/>
<polyline points="111,740 150,740" fill="none" stroke="#1f2937" stroke-width="1.4" stroke-linejoin="round" stroke-linecap="round" stroke-dasharray="2 2"/>
<text x="40" y="620" font-family="Helvetica, Arial, 'Liberation Sans', sans-serif" font-size="11" text-anchor="start" font-weight="bold" fill="#1f2937">DP-1/2/3 peristálticas 12 V</text>
<text x="40" y="810" font-family="Helvetica, Arial, 'Liberation Sans', sans-serif" font-size="10" text-anchor="start" font-weight="normal" fill="#6b7280">dosis fija → esperar 10–15 min</text>
<text x="40" y="824" font-family="Helvetica, Arial, 'Liberation Sans', sans-serif" font-size="10" text-anchor="start" font-weight="normal" fill="#6b7280">de mezcla → re-medir (histéresis)</text>
<text x="40" y="838" font-family="Helvetica, Arial, 'Liberation Sans', sans-serif" font-size="10" text-anchor="start" font-weight="normal" fill="#6b7280">sin dosificación si LT-2 bajo o</text>
<text x="40" y="852" font-family="Helvetica, Arial, 'Liberation Sans', sans-serif" font-size="10" text-anchor="start" font-weight="normal" fill="#6b7280">bomba OFF · A y B en botes</text>
<text x="40" y="866" font-family="Helvetica, Arial, 'Liberation Sans', sans-serif" font-size="10" text-anchor="start" font-weight="normal" fill="#6b7280">separados (Ca precipita con PO₄/SO₄)</text>
<text x="40" y="880" font-family="Helvetica, Arial, 'Liberation Sans', sans-serif" font-size="10" text-anchor="start" font-weight="normal" fill="#6b7280">calibración quincenal: pH 4.01/6.86,</text>
<text x="40" y="894" font-family="Helvetica, Arial, 'Liberation Sans', sans-serif" font-size="10" text-anchor="start" font-weight="normal" fill="#6b7280">EC 1.413 mS/cm</text>
<polyline points="30,470 110,470" fill="none" stroke="#2e7d32" stroke-width="2.5" stroke-linejoin="round" stroke-linecap="round"/>
<polygon points="76,470 64,474.5 64,465.5" fill="#2e7d32" stroke="#2e7d32" stroke-width="1" stroke-linejoin="round"/>
<text x="30" y="444" font-family="Helvetica, Arial, 'Liberation Sans', sans-serif" font-size="11" text-anchor="start" font-weight="normal" fill="#2e7d32">de TK-1 tinaco 750 L</text>
<text x="30" y="459" font-family="Helvetica, Arial, 'Liberation Sans', sans-serif" font-size="11" text-anchor="start" font-weight="normal" fill="#2e7d32">(agua de lluvia / red)</text>
<polygon points="129,462.3 140,470 129,477.7" fill="#ffffff" stroke="#1f2937" stroke-width="1.6" stroke-linejoin="round"/>
<polygon points="151,462.3 140,470 151,477.7" fill="#ffffff" stroke="#1f2937" stroke-width="1.6" stroke-linejoin="round"/>
<line x1="140" y1="470" x2="140" y2="451" stroke="#1f2937" stroke-width="1.6" stroke-linecap="round"/>
<rect x="131" y="435" width="18" height="16" rx="0" fill="#ffffff" stroke="#1f2937" stroke-width="1.6"/>
<text x="140" y="447" font-family="Helvetica, Arial, 'Liberation Sans', sans-serif" font-size="11" text-anchor="middle" font-weight="bold" fill="#1f2937">S</text>
<text x="140" y="495" font-family="Helvetica, Arial, 'Liberation Sans', sans-serif" font-size="12" text-anchor="middle" font-weight="bold" fill="#1f2937">SV-1</text>
<text x="140" y="509" font-family="Helvetica, Arial, 'Liberation Sans', sans-serif" font-size="11" text-anchor="middle" font-weight="normal" fill="#6b7280">12 V ½&quot; NC</text>
<text x="140" y="524" font-family="Helvetica, Arial, 'Liberation Sans', sans-serif" font-size="11" text-anchor="middle" font-weight="normal" fill="#6b7280">(corte de luz = cerrada)</text>
<polyline points="151,470 200,470" fill="none" stroke="#1f2937" stroke-width="2.5" stroke-linejoin="round" stroke-linecap="round"/>
<rect x="207" y="454" width="50" height="32" rx="0" fill="#ffffff" stroke="#1f2937" stroke-width="2"/>
<path d="M211,478 L217,462 L223,478 L229,462 L235,478 L241,462 L247,478 L253,462 " fill="none" stroke="#1f2937" stroke-width="1.3" stroke-linecap="round" stroke-linejoin="round"/>
<text x="232" y="500" font-family="Helvetica, Arial, 'Liberation Sans', sans-serif" font-size="12" text-anchor="middle" font-weight="bold" fill="#1f2937">F-2</text>
<text x="232" y="514" font-family="Helvetica, Arial, 'Liberation Sans', sans-serif" font-size="11" text-anchor="middle" font-weight="normal" fill="#6b7280">dúplex 10&quot;: sedimento 5 µm +</text>
<text x="232" y="529" font-family="Helvetica, Arial, 'Liberation Sans', sans-serif" font-size="11" text-anchor="middle" font-weight="normal" fill="#6b7280">carbón activado (quita cloro)</text>
<text x="232" y="544" font-family="Helvetica, Arial, 'Liberation Sans', sans-serif" font-size="11" text-anchor="middle" font-weight="normal" fill="#6b7280">cartuchos cada 4–6 meses</text>
<polyline points="257,470 190,470 190,600" fill="none" stroke="#1f2937" stroke-width="2.5" stroke-linejoin="round" stroke-linecap="round"/>
<polygon points="217.5,470 229.5,465.5 229.5,474.5" fill="#1f2937" stroke="#1f2937" stroke-width="1" stroke-linejoin="round"/>
<polyline points="210,800 210,840" fill="none" stroke="#1f2937" stroke-width="2.5" stroke-linejoin="round" stroke-linecap="round"/>
<polygon points="202.3,849 210,860 217.7,849" fill="#ffffff" stroke="#1f2937" stroke-width="1.6" stroke-linejoin="round"/>
<polygon points="202.3,871 210,860 217.7,871" fill="#ffffff" stroke="#1f2937" stroke-width="1.6" stroke-linejoin="round"/>
<line x1="210" y1="860" x2="229" y2="860" stroke="#1f2937" stroke-width="1.6" stroke-linecap="round"/>
<rect x="229" y="852" width="18" height="16" rx="0" fill="#ffffff" stroke="#1f2937" stroke-width="1.6"/>
<text x="238" y="864" font-family="Helvetica, Arial, 'Liberation Sans', sans-serif" font-size="11" text-anchor="middle" font-weight="bold" fill="#1f2937">S</text>
<text x="229" y="864" font-family="Helvetica, Arial, 'Liberation Sans', sans-serif" font-size="12" text-anchor="start" font-weight="bold" fill="#1f2937">SV-2</text>
<polyline points="210,871 210,890 30,890" fill="none" stroke="#1f2937" stroke-width="2.5" stroke-linejoin="round" stroke-linecap="round"/>
<polygon points="114,890 126,885.5 126,894.5" fill="#1f2937" stroke="#1f2937" stroke-width="1" stroke-linejoin="round"/>
<rect x="16" y="904" width="28" height="28" rx="0" fill="#f3f4f6" stroke="#1f2937" stroke-width="1.6"/>
<line x1="19" y1="911" x2="41" y2="911" stroke="#1f2937" stroke-width="1.2" stroke-linecap="round"/>
<line x1="19" y1="918" x2="41" y2="918" stroke="#1f2937" stroke-width="1.2" stroke-linecap="round"/>
<line x1="19" y1="925" x2="41" y2="925" stroke="#1f2937" stroke-width="1.2" stroke-linecap="round"/>
<text x="30" y="946" font-family="Helvetica, Arial, 'Liberation Sans', sans-serif" font-size="12" text-anchor="middle" font-weight="bold" fill="#1f2937">coladera</text>
<text x="250" y="884" font-family="Helvetica, Arial, 'Liberation Sans', sans-serif" font-size="10" text-anchor="start" font-weight="normal" fill="#6b7280">purga NC · vaciado cada 2–3 semanas</text>
<rect x="880" y="620" width="450" height="104" rx="4" fill="#ffffff" stroke="#2e7d32" stroke-width="1.4"/>
<rect x="880" y="620" width="5" height="104" rx="1" fill="#2e7d32" stroke="#2e7d32" stroke-width="0"/>
<text x="894" y="636" font-family="Helvetica, Arial, 'Liberation Sans', sans-serif" font-size="12" text-anchor="start" font-weight="bold" fill="#2e7d32">Continuidad y watchdogs</text>
<text x="894" y="651" font-family="Helvetica, Arial, 'Liberation Sans', sans-serif" font-size="11" text-anchor="start" font-weight="normal" fill="#1f2937">Sin recirculación las raíces (película 1–3 mm) se marchitan en 2–4 h</text>
<text x="894" y="666" font-family="Helvetica, Arial, 'Liberation Sans', sans-serif" font-size="11" text-anchor="start" font-weight="normal" fill="#1f2937">con el túnel caliente: la bomba cuelga del bus de batería, no de HA.</text>
<text x="894" y="681" font-family="Helvetica, Arial, 'Liberation Sans', sans-serif" font-size="11" text-anchor="start" font-weight="normal" fill="#1f2937">Watchdogs: FT-1 sin flujo → arranca P-2 + alarma crítica;</text>
<text x="894" y="696" font-family="Helvetica, Arial, 'Liberation Sans', sans-serif" font-size="11" text-anchor="start" font-weight="normal" fill="#1f2937">sonda que no cambia en 24 h o salta &gt; 1.5 en 5 min → 'no confiable'.</text>
<text x="894" y="711" font-family="Helvetica, Arial, 'Liberation Sans', sans-serif" font-size="11" text-anchor="start" font-weight="normal" fill="#1f2937">Commissioning: 48 h con agua sola, sin fugas, caudal en rango por línea.</text>
<rect x="880" y="734" width="450" height="89" rx="4" fill="#ffffff" stroke="#b45309" stroke-width="1.4"/>
<rect x="880" y="734" width="5" height="89" rx="1" fill="#b45309" stroke="#b45309" stroke-width="0"/>
<text x="894" y="750" font-family="Helvetica, Arial, 'Liberation Sans', sans-serif" font-size="12" text-anchor="start" font-weight="bold" fill="#b45309">Errores típicos</text>
<text x="894" y="765" font-family="Helvetica, Arial, 'Liberation Sans', sans-serif" font-size="11" text-anchor="start" font-weight="normal" fill="#1f2937">Panza a media línea (soporte &gt; 1.5 m) = agua estancada = raíces podridas.</text>
<text x="894" y="780" font-family="Helvetica, Arial, 'Liberation Sans', sans-serif" font-size="11" text-anchor="start" font-weight="normal" fill="#1f2937">Perforar antes de tener las canastillas → hoyo de 2&quot; exacto: se cae.</text>
<text x="894" y="795" font-family="Helvetica, Arial, 'Liberation Sans', sans-serif" font-size="11" text-anchor="start" font-weight="normal" fill="#1f2937">Peat pellets / turba tapan la malla 120. Tambo al sol &gt; 25 °C: algas y sin O₂.</text>
<text x="894" y="810" font-family="Helvetica, Arial, 'Liberation Sans', sans-serif" font-size="11" text-anchor="start" font-weight="normal" fill="#1f2937">Periférica 0.5 HP 24/7 = 324 kWh/mes → tarifa DAC.</text>
<rect x="880" y="800" width="450" height="138" rx="4" fill="#ffffff" stroke="#1f2937" stroke-width="1.2"/>
<text x="892" y="820" font-family="Helvetica, Arial, 'Liberation Sans', sans-serif" font-size="12" text-anchor="start" font-weight="bold" fill="#1f2937">Leyenda de símbolos</text>
<rect x="904" y="837" width="20" height="20" rx="3" fill="#ffffff" stroke="#1f2937" stroke-width="1.6"/>
<line x1="904" y1="849" x2="924" y2="849" stroke="#2e7d32" stroke-width="1.2" stroke-linecap="round" stroke-dasharray="3 2"/>
<text x="944" y="851" font-family="Helvetica, Arial, 'Liberation Sans', sans-serif" font-size="11" text-anchor="start" font-weight="normal" fill="#1f2937">tanque con nivel</text>
<circle cx="1127" cy="847" r="10" fill="#ffffff" stroke="#1f2937" stroke-width="2"/>
<polygon points="1134.8,847 1123,851.7 1123,842.3" fill="#1f2937" stroke="#1f2937" stroke-width="1" stroke-linejoin="round"/>
<text x="1127" y="871" font-family="Helvetica, Arial, 'Liberation Sans', sans-serif" font-size="12" text-anchor="middle" font-weight="bold" fill="#1f2937"></text>
<text x="1157" y="851" font-family="Helvetica, Arial, 'Liberation Sans', sans-serif" font-size="11" text-anchor="start" font-weight="normal" fill="#1f2937">bomba</text>
<rect x="901" y="864" width="26" height="18" rx="0" fill="#ffffff" stroke="#1f2937" stroke-width="2"/>
<path d="M905,877.5 L911,868.5 L917,877.5 L923,868.5 " fill="none" stroke="#1f2937" stroke-width="1.3" stroke-linecap="round" stroke-linejoin="round"/>
<text x="914" y="896" font-family="Helvetica, Arial, 'Liberation Sans', sans-serif" font-size="12" text-anchor="middle" font-weight="bold" fill="#1f2937"></text>
<text x="944" y="877" font-family="Helvetica, Arial, 'Liberation Sans', sans-serif" font-size="11" text-anchor="start" font-weight="normal" fill="#1f2937">filtro</text>
<polygon points="1119,867.4 1127,873 1119,878.6" fill="#ffffff" stroke="#1f2937" stroke-width="1.6" stroke-linejoin="round"/>
<polygon points="1135,867.4 1127,873 1135,878.6" fill="#ffffff" stroke="#1f2937" stroke-width="1.6" stroke-linejoin="round"/>
<line x1="1127" y1="865.8" x2="1127" y2="880.2" stroke="#1f2937" stroke-width="2.2" stroke-linecap="round"/>
<circle cx="1127" cy="873" r="2.2" fill="#1f2937" stroke="#1f2937" stroke-width="1.5"/>
<text x="1157" y="877" font-family="Helvetica, Arial, 'Liberation Sans', sans-serif" font-size="11" text-anchor="start" font-weight="normal" fill="#1f2937">válvula de mariposa</text>
<polygon points="907,898.1 914,903 907,907.9" fill="#ffffff" stroke="#1f2937" stroke-width="1.6" stroke-linejoin="round"/>
<polygon points="921,898.1 914,903 921,907.9" fill="#ffffff" stroke="#1f2937" stroke-width="1.6" stroke-linejoin="round"/>
<line x1="914" y1="903" x2="914" y2="893" stroke="#1f2937" stroke-width="1.4" stroke-linecap="round"/>
<rect x="908" y="883" width="12" height="10" rx="0" fill="#ffffff" stroke="#1f2937" stroke-width="1.4"/>
<text x="944" y="903" font-family="Helvetica, Arial, 'Liberation Sans', sans-serif" font-size="11" text-anchor="start" font-weight="normal" fill="#1f2937">válvula solenoide NC</text>
<circle cx="1127" cy="899" r="10" fill="#ffffff" stroke="#1f2937" stroke-width="2"/>
<text x="1127" y="902.6" font-family="Helvetica, Arial, 'Liberation Sans', sans-serif" font-size="10" text-anchor="middle" font-weight="bold" fill="#1f2937">pH</text>
<text x="1157" y="903" font-family="Helvetica, Arial, 'Liberation Sans', sans-serif" font-size="11" text-anchor="start" font-weight="normal" fill="#1f2937">sensor pH / EC / T / L / F</text>
<rect x="896" y="920" width="36" height="10" rx="3" fill="#f3f4f6" stroke="#1f2937" stroke-width="1.4"/>
<circle cx="904" cy="925" r="2.6" fill="#ffffff" stroke="#1f2937" stroke-width="1"/>
<circle cx="914" cy="925" r="2.6" fill="#ffffff" stroke="#1f2937" stroke-width="1"/>
<circle cx="924" cy="925" r="2.6" fill="#ffffff" stroke="#1f2937" stroke-width="1"/>
<text x="944" y="929" font-family="Helvetica, Arial, 'Liberation Sans', sans-serif" font-size="11" text-anchor="start" font-weight="normal" fill="#1f2937">línea NFT 4&quot; con canastillas</text>
<polyline points="1109,925 1145,925" fill="none" stroke="#6b7280" stroke-width="1.2" stroke-linejoin="round" stroke-linecap="round" stroke-dasharray="4 3"/>
<text x="1157" y="929" font-family="Helvetica, Arial, 'Liberation Sans', sans-serif" font-size="11" text-anchor="start" font-weight="normal" fill="#1f2937">señal al ESP32</text>
<text x="30" y="925" font-family="Helvetica, Arial, 'Liberation Sans', sans-serif" font-size="10" text-anchor="start" font-weight="normal" fill="#6b7280">Fuentes: referencia/03-instalacion §2.1–2.3 · research/hidroponia-nft · research/electrico-respaldo-seguridad §2 · referencia/06 L0 · bom/fase2.csv</text>
</svg>
