<?xml version="1.0" encoding="UTF-8"?>
<svg xmlns="http://www.w3.org/2000/svg" width="1220" height="1040" viewBox="0 0 1220 1040" role="img" aria-label="Planta · Fase 1 · escala 1:50 · supuesto 10×8 m">
<title>Planta · Fase 1 · escala 1:50 · supuesto 10×8 m</title>
<defs><marker id="arrInk" viewBox="0 0 10 10" refX="9" refY="5" markerWidth="7" markerHeight="7" orient="auto-start-reverse"><path d="M0,0 L10,5 L0,10 Z" fill="#1f2937"/></marker><marker id="arrBlue" viewBox="0 0 10 10" refX="9" refY="5" markerWidth="7" markerHeight="7" orient="auto-start-reverse"><path d="M0,0 L10,5 L0,10 Z" fill="#1d4ed8"/></marker><marker id="arrAmber" viewBox="0 0 10 10" refX="9" refY="5" markerWidth="7" markerHeight="7" orient="auto-start-reverse"><path d="M0,0 L10,5 L0,10 Z" fill="#b45309"/></marker><marker id="arrGreen" viewBox="0 0 10 10" refX="9" refY="5" markerWidth="7" markerHeight="7" orient="auto-start-reverse"><path d="M0,0 L10,5 L0,10 Z" fill="#2e7d32"/></marker><pattern id="hatch" width="8" height="8" patternUnits="userSpaceOnUse" patternTransform="rotate(45)"><line x1="0" y1="0" x2="0" y2="8" stroke="#1f2937" stroke-width="1.2"/></pattern><pattern id="hatchGreen" width="6" height="6" patternUnits="userSpaceOnUse" patternTransform="rotate(45)"><line x1="0" y1="0" x2="0" y2="6" stroke="#2e7d32" stroke-width="0.8"/></pattern><pattern id="roof" width="10" height="10" patternUnits="userSpaceOnUse" patternTransform="rotate(-45)"><line x1="0" y1="0" x2="0" y2="10" stroke="#6b7280" stroke-width="0.6"/></pattern></defs>
<rect x="0" y="0" width="1220" height="1040" fill="#ffffff" stroke="none" stroke-width="1.5"/>
<text x="24" y="34" font-family="Helvetica, Arial, 'Liberation Sans', sans-serif" font-size="27" fill="#1f2937" text-anchor="start" stroke="#ffffff" stroke-width="5.94" stroke-linejoin="round" paint-order="stroke" font-weight="bold">Planta · Fase 1 · escala 1:50 · supuesto 10×8 m</text>
<text x="24" y="58" font-family="Helvetica, Arial, 'Liberation Sans', sans-serif" font-size="18" fill="#6b7280" text-anchor="start" stroke="#ffffff" stroke-width="3.96" stroke-linejoin="round" paint-order="stroke">Túnel 3×6 m con 3 racks + tinaco 750 L + gabinetes IP65 + canaleta→tinaco + circuito GFCI desde la casa · meses 2–4</text>
<text x="1196" y="34" font-family="Helvetica, Arial, 'Liberation Sans', sans-serif" font-size="18" fill="#6b7280" text-anchor="end" stroke="#ffffff" stroke-width="3.96" stroke-linejoin="round" paint-order="stroke">HomeGreen · v1 · 2026-09</text>
<line x1="24" y1="72" x2="1196" y2="72" stroke="#1f2937" stroke-width="1" stroke-linecap="round"/>
<rect x="95" y="135" width="1030" height="15" fill="#e5e7eb" stroke="#1f2937" stroke-width="1"/>
<rect x="95" y="150" width="15" height="800" fill="#e5e7eb" stroke="#1f2937" stroke-width="1"/>
<rect x="1110" y="150" width="15" height="800" fill="#e5e7eb" stroke="#1f2937" stroke-width="1"/>
<rect x="95" y="950" width="1030" height="45" fill="url(#hatch)" stroke="#1f2937" stroke-width="1.5"/>
<text x="125" y="980" font-family="Helvetica, Arial, 'Liberation Sans', sans-serif" font-size="16.5" fill="#1f2937" text-anchor="start" stroke="#ffffff" stroke-width="3.63" stroke-linejoin="round" paint-order="stroke" font-weight="bold">CASA (pared sur)</text>
<rect x="110" y="150" width="1000" height="800" fill="none" stroke="#1f2937" stroke-width="2"/>
<rect x="780" y="135" width="100" height="15" fill="#ffffff" stroke="none" stroke-width="1.5"/>
<line x1="780" y1="135" x2="780" y2="150" stroke="#1f2937" stroke-width="1.5" stroke-linecap="round"/>
<line x1="880" y1="135" x2="880" y2="150" stroke="#1f2937" stroke-width="1.5" stroke-linecap="round"/>
<line x1="780" y1="150" x2="785" y2="75" stroke="#1f2937" stroke-width="1.2" stroke-linecap="round"/>
<path d="M785,75 A80,80 0 0 1 880,145" fill="none" stroke="#1f2937" stroke-width="1" stroke-dasharray="3 3"/>
<text x="830" y="120" font-family="Helvetica, Arial, 'Liberation Sans', sans-serif" font-size="15.75" fill="#1f2937" text-anchor="middle" stroke="#ffffff" stroke-width="3.46" stroke-linejoin="round" paint-order="stroke" font-weight="bold">ACCESO · zaguán 1.0 m (abre hacia afuera)</text>
<rect x="550" y="950" width="90" height="45" fill="#ffffff" stroke="none" stroke-width="1.5"/>
<line x1="550" y1="950" x2="550" y2="995" stroke="#1f2937" stroke-width="1.5" stroke-linecap="round"/>
<line x1="640" y1="950" x2="640" y2="995" stroke="#1f2937" stroke-width="1.5" stroke-linecap="round"/>
<line x1="550" y1="950" x2="555" y2="860" stroke="#1f2937" stroke-width="1.2" stroke-linecap="round"/>
<path d="M555,860 A90,90 0 0 1 640,945" fill="none" stroke="#1f2937" stroke-width="1" stroke-dasharray="3 3"/>
<text x="595" y="852" font-family="Helvetica, Arial, 'Liberation Sans', sans-serif" font-size="14.25" fill="#6b7280" text-anchor="middle" stroke="#ffffff" stroke-width="3.14" stroke-linejoin="round" paint-order="stroke">puerta casa→patio 0.9 m</text>
<line x1="110" y1="89" x2="110" y2="101" stroke="#1f2937" stroke-width="1" stroke-linecap="round"/>
<line x1="106" y1="99" x2="114" y2="91" stroke="#1f2937" stroke-width="1.2" stroke-linecap="round"/>
<line x1="1110" y1="89" x2="1110" y2="101" stroke="#1f2937" stroke-width="1" stroke-linecap="round"/>
<line x1="1106" y1="99" x2="1114" y2="91" stroke="#1f2937" stroke-width="1.2" stroke-linecap="round"/>
<line x1="110" y1="95" x2="1110" y2="95" stroke="#1f2937" stroke-width="1" stroke-linecap="round"/>
<text x="610" y="91" font-family="Helvetica, Arial, 'Liberation Sans', sans-serif" font-size="16.5" fill="#1f2937" text-anchor="middle" stroke="#ffffff" stroke-width="3.63" stroke-linejoin="round" paint-order="stroke">10.00 m (supuesto)</text>
<line x1="44" y1="150" x2="56" y2="150" stroke="#1f2937" stroke-width="1" stroke-linecap="round"/>
<line x1="46" y1="154" x2="54" y2="146" stroke="#1f2937" stroke-width="1.2" stroke-linecap="round"/>
<line x1="44" y1="950" x2="56" y2="950" stroke="#1f2937" stroke-width="1" stroke-linecap="round"/>
<line x1="46" y1="954" x2="54" y2="946" stroke="#1f2937" stroke-width="1.2" stroke-linecap="round"/>
<line x1="50" y1="150" x2="50" y2="950" stroke="#1f2937" stroke-width="1" stroke-linecap="round"/>
<text x="46" y="550" font-family="Helvetica, Arial, 'Liberation Sans', sans-serif" font-size="16.5" fill="#1f2937" text-anchor="middle" stroke="#ffffff" stroke-width="3.63" stroke-linejoin="round" paint-order="stroke" transform="rotate(-90 46 550)">8.00 m (supuesto)</text>
<circle cx="1170" cy="930" r="22" fill="none" stroke="#1f2937" stroke-width="1.2"/>
<polygon points="1170,910 1162,940 1170,933 1178,940" fill="#1f2937" stroke="#1f2937" stroke-width="1" stroke-linejoin="round" stroke-linecap="round"/>
<text x="1170" y="903" font-family="Helvetica, Arial, 'Liberation Sans', sans-serif" font-size="19.5" fill="#1f2937" text-anchor="middle" stroke="#ffffff" stroke-width="4.29" stroke-linejoin="round" paint-order="stroke" font-weight="bold">N</text>
<text x="1125" y="1012" font-family="Helvetica, Arial, 'Liberation Sans', sans-serif" font-size="14.25" fill="#6b7280" text-anchor="end" stroke="#ffffff" stroke-width="3.14" stroke-linejoin="round" paint-order="stroke">sol de mediodía: desde el SUR, casi vertical (19° N) · UV 11+ de marzo a septiembre</text>
<rect x="1055" y="175" width="30" height="30" fill="#ffffff" stroke="#1d4ed8" stroke-width="1.5"/>
<line x1="1062.5" y1="175" x2="1062.5" y2="205" stroke="#1d4ed8" stroke-width="0.8" stroke-linecap="round"/>
<line x1="1055" y1="182.5" x2="1085" y2="182.5" stroke="#1d4ed8" stroke-width="0.8" stroke-linecap="round"/>
<line x1="1070" y1="175" x2="1070" y2="205" stroke="#1d4ed8" stroke-width="0.8" stroke-linecap="round"/>
<line x1="1055" y1="190" x2="1085" y2="190" stroke="#1d4ed8" stroke-width="0.8" stroke-linecap="round"/>
<line x1="1077.5" y1="175" x2="1077.5" y2="205" stroke="#1d4ed8" stroke-width="0.8" stroke-linecap="round"/>
<line x1="1055" y1="197.5" x2="1085" y2="197.5" stroke="#1d4ed8" stroke-width="0.8" stroke-linecap="round"/>
<text x="1048" y="196" font-family="Helvetica, Arial, 'Liberation Sans', sans-serif" font-size="14.25" fill="#1d4ed8" text-anchor="end" stroke="#ffffff" stroke-width="3.14" stroke-linejoin="round" paint-order="stroke">coladera</text>
<rect x="750" y="780" width="350" height="170" fill="url(#roof)" stroke="none" stroke-width="1.5"/>
<rect x="750" y="780" width="350" height="170" fill="#ffffff" stroke="none" stroke-width="1.5" fill-opacity="0.65"/>
<rect x="750" y="780" width="350" height="170" fill="none" stroke="#6b7280" stroke-width="1.5" stroke-dasharray="6 4"/>
<circle cx="1085" cy="942" r="9" fill="#ffffff" stroke="#1d4ed8" stroke-width="1.8"/>
<text x="1085" y="946" font-family="Helvetica, Arial, 'Liberation Sans', sans-serif" font-size="15" fill="#1d4ed8" text-anchor="middle" stroke="#ffffff" stroke-width="3.3" stroke-linejoin="round" paint-order="stroke" font-weight="bold">T</text>
<text x="1095" y="796" font-family="Helvetica, Arial, 'Liberation Sans', sans-serif" font-size="14.25" fill="#6b7280" text-anchor="end" stroke="#ffffff" stroke-width="3.14" stroke-linejoin="round" paint-order="stroke">COBERTIZO existente (supuesto) 3.5×1.7 m</text>
<rect x="650" y="953" width="125" height="40" fill="#ffffff" stroke="#b45309" stroke-width="1.5"/>
<text x="712.5" y="966" font-family="Helvetica, Arial, 'Liberation Sans', sans-serif" font-size="13.5" fill="#b45309" text-anchor="middle" stroke="#ffffff" stroke-width="2.97" stroke-linejoin="round" paint-order="stroke">centro de carga</text>
<rect x="268" y="953" width="230" height="40" fill="#ffffff" stroke="#b45309" stroke-width="1.2" stroke-dasharray="2 3"/>
<text x="383" y="968.5" font-family="Helvetica, Arial, 'Liberation Sans', sans-serif" font-size="13.5" fill="#b45309" text-anchor="middle" stroke="#ffffff" stroke-width="2.97" stroke-linejoin="round" paint-order="stroke">cerebro (interior):</text>
<text x="383" y="984.25" font-family="Helvetica, Arial, 'Liberation Sans', sans-serif" font-size="13.5" fill="#b45309" text-anchor="middle" stroke="#ffffff" stroke-width="2.97" stroke-linejoin="round" paint-order="stroke">mini-PC HA + router + UPS</text>
<rect x="170" y="230" width="600" height="300" fill="url(#roof)" stroke="none" stroke-width="1.5"/>
<rect x="170" y="230" width="600" height="300" fill="#ffffff" stroke="none" stroke-width="1.5" fill-opacity="0.6"/>
<rect x="170" y="230" width="600" height="300" fill="none" stroke="#1f2937" stroke-width="2.5"/>
<line x1="170" y1="380" x2="770" y2="380" stroke="#1f2937" stroke-width="1.2" stroke-linecap="round" stroke-dasharray="10 4 2 4"/>
<text x="708" y="350" font-family="Helvetica, Arial, 'Liberation Sans', sans-serif" font-size="13.5" fill="#6b7280" text-anchor="end" stroke="#ffffff" stroke-width="2.97" stroke-linejoin="round" paint-order="stroke">cumbrera E–O</text>
<text x="708" y="372" font-family="Helvetica, Arial, 'Liberation Sans', sans-serif" font-size="13.5" fill="#6b7280" text-anchor="end" stroke="#ffffff" stroke-width="2.97" stroke-linejoin="round" paint-order="stroke">dos aguas ≥ 25 %</text>
<line x1="220" y1="368" x2="220" y2="252" stroke="#6b7280" stroke-width="1" stroke-linecap="round" marker-end="url(#arrInk)"/>
<line x1="220" y1="392" x2="220" y2="508" stroke="#6b7280" stroke-width="1" stroke-linecap="round" marker-end="url(#arrInk)"/>
<line x1="720" y1="368" x2="720" y2="252" stroke="#6b7280" stroke-width="1" stroke-linecap="round" marker-end="url(#arrInk)"/>
<line x1="720" y1="392" x2="720" y2="508" stroke="#6b7280" stroke-width="1" stroke-linecap="round" marker-end="url(#arrInk)"/>
<rect x="165.5" y="225.5" width="9" height="9" fill="#1f2937" stroke="#1f2937" stroke-width="1"/>
<rect x="165.5" y="525.5" width="9" height="9" fill="#1f2937" stroke="#1f2937" stroke-width="1"/>
<rect x="465.5" y="225.5" width="9" height="9" fill="#1f2937" stroke="#1f2937" stroke-width="1"/>
<rect x="465.5" y="525.5" width="9" height="9" fill="#1f2937" stroke="#1f2937" stroke-width="1"/>
<rect x="765.5" y="225.5" width="9" height="9" fill="#1f2937" stroke="#1f2937" stroke-width="1"/>
<rect x="765.5" y="525.5" width="9" height="9" fill="#1f2937" stroke="#1f2937" stroke-width="1"/>
<rect x="166.5" y="376.5" width="7" height="7" fill="#1f2937" stroke="#1f2937" stroke-width="1"/>
<rect x="766.5" y="376.5" width="7" height="7" fill="#1f2937" stroke="#1f2937" stroke-width="1"/>
<line x1="770" y1="340" x2="770" y2="430" stroke="#ffffff" stroke-width="5" stroke-linecap="round"/>
<line x1="770" y1="340" x2="850" y2="380" stroke="#1f2937" stroke-width="1.2" stroke-linecap="round"/>
<path d="M850,380 A90,90 0 0 1 772,430" fill="none" stroke="#1f2937" stroke-width="0.9" stroke-dasharray="3 3"/>
<text x="180" y="202" font-family="Helvetica, Arial, 'Liberation Sans', sans-serif" font-size="15.75" fill="#1f2937" text-anchor="start" stroke="#ffffff" stroke-width="3.46" stroke-linejoin="round" paint-order="stroke" font-weight="bold">TÚNEL 6×3 m = 18 m² · PTR 1½" cal. 14 · 3 pórticos</text>
<rect x="350" y="250" width="91.4" height="45.7" fill="#e8f5e9" stroke="#2e7d32" stroke-width="1.8"/>
<rect x="353.8" y="247.5" width="25.4" height="50.8" fill="none" stroke="#2e7d32" stroke-width="0.9"/>
<rect x="383" y="247.5" width="25.4" height="50.8" fill="none" stroke="#2e7d32" stroke-width="0.9"/>
<rect x="412.2" y="247.5" width="25.4" height="50.8" fill="none" stroke="#2e7d32" stroke-width="0.9"/>
<text x="395.7" y="310.7" font-family="Helvetica, Arial, 'Liberation Sans', sans-serif" font-size="14.25" fill="#2e7d32" text-anchor="middle" stroke="#ffffff" stroke-width="3.14" stroke-linejoin="round" paint-order="stroke">rack 1</text>
<rect x="475" y="250" width="91.4" height="45.7" fill="#e8f5e9" stroke="#2e7d32" stroke-width="1.8"/>
<rect x="478.8" y="247.5" width="25.4" height="50.8" fill="none" stroke="#2e7d32" stroke-width="0.9"/>
<rect x="508" y="247.5" width="25.4" height="50.8" fill="none" stroke="#2e7d32" stroke-width="0.9"/>
<rect x="537.2" y="247.5" width="25.4" height="50.8" fill="none" stroke="#2e7d32" stroke-width="0.9"/>
<text x="520.7" y="310.7" font-family="Helvetica, Arial, 'Liberation Sans', sans-serif" font-size="14.25" fill="#2e7d32" text-anchor="middle" stroke="#ffffff" stroke-width="3.14" stroke-linejoin="round" paint-order="stroke">rack 2</text>
<rect x="600" y="250" width="91.4" height="45.7" fill="#e8f5e9" stroke="#2e7d32" stroke-width="1.8"/>
<rect x="603.8" y="247.5" width="25.4" height="50.8" fill="none" stroke="#2e7d32" stroke-width="0.9"/>
<rect x="633" y="247.5" width="25.4" height="50.8" fill="none" stroke="#2e7d32" stroke-width="0.9"/>
<rect x="662.2" y="247.5" width="25.4" height="50.8" fill="none" stroke="#2e7d32" stroke-width="0.9"/>
<text x="645.7" y="310.7" font-family="Helvetica, Arial, 'Liberation Sans', sans-serif" font-size="14.25" fill="#2e7d32" text-anchor="middle" stroke="#ffffff" stroke-width="3.14" stroke-linejoin="round" paint-order="stroke">rack 3 (testigo MT-1…4)</text>
<line x1="441.4" y1="267" x2="441.4" y2="279" stroke="#1f2937" stroke-width="1" stroke-linecap="round"/>
<line x1="437.4" y1="277" x2="445.4" y2="269" stroke="#1f2937" stroke-width="1.2" stroke-linecap="round"/>
<line x1="475" y1="267" x2="475" y2="279" stroke="#1f2937" stroke-width="1" stroke-linecap="round"/>
<line x1="471" y1="277" x2="479" y2="269" stroke="#1f2937" stroke-width="1.2" stroke-linecap="round"/>
<line x1="441.4" y1="273" x2="475" y2="273" stroke="#1f2937" stroke-width="1" stroke-linecap="round"/>
<text x="458.2" y="269" font-family="Helvetica, Arial, 'Liberation Sans', sans-serif" font-size="12.75" fill="#1f2937" text-anchor="middle" stroke="#ffffff" stroke-width="2.81" stroke-linejoin="round" paint-order="stroke">0.34</text>
<rect x="210" y="258" width="120" height="60" fill="#ffffff" stroke="#1f2937" stroke-width="1.5"/>
<rect x="214" y="262" width="112" height="52" fill="none" stroke="#1f2937" stroke-width="0.7"/>
<text x="270" y="277.5" font-family="Helvetica, Arial, 'Liberation Sans', sans-serif" font-size="13.5" fill="#1f2937" text-anchor="middle" stroke="#ffffff" stroke-width="2.97" stroke-linejoin="round" paint-order="stroke">mesa de siembra</text>
<text x="270" y="294" font-family="Helvetica, Arial, 'Liberation Sans', sans-serif" font-size="13.5" fill="#1f2937" text-anchor="middle" stroke="#ffffff" stroke-width="2.97" stroke-linejoin="round" paint-order="stroke">1.2×0.6 m</text>
<text x="270" y="310.5" font-family="Helvetica, Arial, 'Liberation Sans', sans-serif" font-size="13.5" fill="#1f2937" text-anchor="middle" stroke="#ffffff" stroke-width="2.97" stroke-linejoin="round" paint-order="stroke">+ tapete dic–feb</text>
<text x="470" y="435" font-family="Helvetica, Arial, 'Liberation Sans', sans-serif" font-size="13.5" fill="#6b7280" text-anchor="middle" stroke="#ffffff" stroke-width="2.97" stroke-linejoin="round" paint-order="stroke">zona libre: carrito de charolas · lavado en seco · futuro NFT</text>
<polyline points="170,222 770,222" fill="none" stroke="#1d4ed8" stroke-width="2" stroke-linejoin="round" stroke-linecap="round" stroke-dasharray="10 4 2 4" marker-end="url(#arrBlue)"/>
<polyline points="170,538 770,538" fill="none" stroke="#1d4ed8" stroke-width="2" stroke-linejoin="round" stroke-linecap="round" stroke-dasharray="10 4 2 4" marker-end="url(#arrBlue)"/>
<polyline points="786,538 786,222" fill="none" stroke="#1d4ed8" stroke-width="1.5" stroke-linejoin="round" stroke-linecap="round" stroke-dasharray="10 4 2 4" marker-end="url(#arrBlue)"/>
<polyline points="770,222 893,222 893,192" fill="none" stroke="#1d4ed8" stroke-width="2" stroke-linejoin="round" stroke-linecap="round" stroke-dasharray="10 4 2 4" marker-end="url(#arrBlue)"/>
<text x="180" y="216" font-family="Helvetica, Arial, 'Liberation Sans', sans-serif" font-size="13.5" fill="#1d4ed8" text-anchor="start" stroke="#ffffff" stroke-width="2.97" stroke-linejoin="round" paint-order="stroke">canalón PVC · 6 m · pendiente 0.5–1 % → bajante NE</text>
<text x="180" y="560" font-family="Helvetica, Arial, 'Liberation Sans', sans-serif" font-size="13.5" fill="#1d4ed8" text-anchor="start" stroke="#ffffff" stroke-width="2.97" stroke-linejoin="round" paint-order="stroke">canalón sur · 6 m → bajante SE → colector 2" (cabecera este, 2 m)</text>
<rect x="878" y="192" width="48" height="46" fill="#ffffff" stroke="#1d4ed8" stroke-width="1.5"/>
<text x="902" y="206" font-family="Helvetica, Arial, 'Liberation Sans', sans-serif" font-size="12" fill="#1d4ed8" text-anchor="middle" stroke="#ffffff" stroke-width="2.64" stroke-linejoin="round" paint-order="stroke">SP-1</text>
<text x="902" y="220.25" font-family="Helvetica, Arial, 'Liberation Sans', sans-serif" font-size="12" fill="#1d4ed8" text-anchor="middle" stroke="#ffffff" stroke-width="2.64" stroke-linejoin="round" paint-order="stroke">tlaloque</text>
<text x="902" y="234.5" font-family="Helvetica, Arial, 'Liberation Sans', sans-serif" font-size="12" fill="#1d4ed8" text-anchor="middle" stroke="#ffffff" stroke-width="2.64" stroke-linejoin="round" paint-order="stroke">+ filtro</text>
<rect x="860" y="245" width="130" height="130" fill="none" stroke="#1d4ed8" stroke-width="0.8" stroke-dasharray="3 2"/>
<circle cx="925" cy="310" r="55" fill="#eff6ff" stroke="#1d4ed8" stroke-width="2"/>
<circle cx="925" cy="310" r="39.6" fill="none" stroke="#1d4ed8" stroke-width="0.9"/>
<text x="925" y="277" font-family="Helvetica, Arial, 'Liberation Sans', sans-serif" font-size="13.5" fill="#1d4ed8" text-anchor="middle" stroke="#ffffff" stroke-width="2.97" stroke-linejoin="round" paint-order="stroke">TK-1 tinaco</text>
<text x="925" y="293.5" font-family="Helvetica, Arial, 'Liberation Sans', sans-serif" font-size="13.5" fill="#1d4ed8" text-anchor="middle" stroke="#ffffff" stroke-width="2.97" stroke-linejoin="round" paint-order="stroke">750 L · opaco</text>
<text x="925" y="310" font-family="Helvetica, Arial, 'Liberation Sans', sans-serif" font-size="13.5" fill="#1d4ed8" text-anchor="middle" stroke="#ffffff" stroke-width="2.97" stroke-linejoin="round" paint-order="stroke">base firme</text>
<text x="925" y="326.5" font-family="Helvetica, Arial, 'Liberation Sans', sans-serif" font-size="13.5" fill="#1d4ed8" text-anchor="middle" stroke="#ffffff" stroke-width="2.97" stroke-linejoin="round" paint-order="stroke">LT-1 · TT-1</text>
<text x="925" y="343" font-family="Helvetica, Arial, 'Liberation Sans', sans-serif" font-size="13.5" fill="#1d4ed8" text-anchor="middle" stroke="#ffffff" stroke-width="2.97" stroke-linejoin="round" paint-order="stroke">en la tapa</text>
<polyline points="970,270 1065,205" fill="none" stroke="#1d4ed8" stroke-width="1.5" stroke-linejoin="round" stroke-linecap="round" stroke-dasharray="6 4" marker-end="url(#arrBlue)"/>
<polyline points="1085,933 1100,933 1100,310 980,310" fill="none" stroke="#1d4ed8" stroke-width="2" stroke-linejoin="round" stroke-linecap="round" marker-end="url(#arrBlue)"/>
<text x="1108" y="610" font-family="Helvetica, Arial, 'Liberation Sans', sans-serif" font-size="13.5" fill="#1d4ed8" text-anchor="middle" stroke="#ffffff" stroke-width="2.97" stroke-linejoin="round" paint-order="stroke" transform="rotate(-90 1108 610)">red ½" ≈ 7.58 m → FV-1 flotador (solo rellena, tandeo)</text>
<line x1="925" y1="365" x2="925" y2="396" stroke="#1d4ed8" stroke-width="2" stroke-linecap="round"/>
<line x1="918" y1="396" x2="942" y2="396" stroke="#1d4ed8" stroke-width="2" stroke-linecap="round"/>
<text x="932" y="382" font-family="Helvetica, Arial, 'Liberation Sans', sans-serif" font-size="12.75" fill="#1d4ed8" text-anchor="start" stroke="#ffffff" stroke-width="2.81" stroke-linejoin="round" paint-order="stroke">V-1 + F-1</text>
<rect x="846" y="390" width="72" height="30" fill="#ffffff" stroke="#1d4ed8" stroke-width="1.5"/>
<text x="882" y="400.5" font-family="Helvetica, Arial, 'Liberation Sans', sans-serif" font-size="12" fill="#1d4ed8" text-anchor="middle" stroke="#ffffff" stroke-width="2.64" stroke-linejoin="round" paint-order="stroke">P-1 12 V</text>
<text x="882" y="414.75" font-family="Helvetica, Arial, 'Liberation Sans', sans-serif" font-size="12" fill="#1d4ed8" text-anchor="middle" stroke="#ffffff" stroke-width="2.64" stroke-linejoin="round" paint-order="stroke">+ F-1</text>
<polyline points="846,396 752,396 752,252 350,252" fill="none" stroke="#1d4ed8" stroke-width="2" stroke-linejoin="round" stroke-linecap="round" marker-end="url(#arrBlue)"/>
<line x1="395.7" y1="252" x2="395.7" y2="280" stroke="#1d4ed8" stroke-width="1.2" stroke-linecap="round" marker-end="url(#arrBlue)"/>
<line x1="520.7" y1="252" x2="520.7" y2="280" stroke="#1d4ed8" stroke-width="1.2" stroke-linecap="round" marker-end="url(#arrBlue)"/>
<line x1="645.7" y1="252" x2="645.7" y2="280" stroke="#1d4ed8" stroke-width="1.2" stroke-linecap="round" marker-end="url(#arrBlue)"/>
<polyline points="350,240 742,240 742,460 1095,460 1095,210 1080,200" fill="none" stroke="#1d4ed8" stroke-width="1.5" stroke-linejoin="round" stroke-linecap="round" stroke-dasharray="6 4" marker-end="url(#arrBlue)"/>
<text x="785" y="477" font-family="Helvetica, Arial, 'Liberation Sans', sans-serif" font-size="12.75" fill="#1d4ed8" text-anchor="start" stroke="#ffffff" stroke-width="2.81" stroke-linejoin="round" paint-order="stroke">drenaje 2" ≈ 12.4 m → coladera (≥ 1 %)</text>
<text x="712.5" y="985" font-family="Helvetica, Arial, 'Liberation Sans', sans-serif" font-size="13.5" fill="#b45309" text-anchor="middle" stroke="#ffffff" stroke-width="2.97" stroke-linejoin="round" paint-order="stroke" font-weight="bold">+ QO120GFI 20 A</text>
<rect x="805" y="937" width="20" height="20" fill="#ffffff" stroke="#b45309" stroke-width="1.8"/>
<line x1="811" y1="942" x2="811" y2="952" stroke="#b45309" stroke-width="1.5" stroke-linecap="round"/>
<line x1="819" y1="942" x2="819" y2="952" stroke="#b45309" stroke-width="1.5" stroke-linecap="round"/>
<circle cx="660" cy="920" r="7" fill="#ffffff" stroke="#b45309" stroke-width="1.5"/>
<line x1="653" y1="930" x2="667" y2="930" stroke="#b45309" stroke-width="1.2" stroke-linecap="round"/>
<line x1="655.5" y1="934.5" x2="664.5" y2="934.5" stroke="#b45309" stroke-width="1.2" stroke-linecap="round"/>
<line x1="658" y1="939" x2="662" y2="939" stroke="#b45309" stroke-width="1.2" stroke-linecap="round"/>
<line x1="660" y1="920" x2="655" y2="953" stroke="#b45309" stroke-width="1" stroke-linecap="round" stroke-dasharray="2 3"/>
<rect x="760" y="905" width="40" height="35" fill="#fff7ed" stroke="#b45309" stroke-width="2"/>
<line x1="763" y1="908" x2="797" y2="937" stroke="#b45309" stroke-width="0.8" stroke-linecap="round"/>
<line x1="797" y1="908" x2="763" y2="937" stroke="#b45309" stroke-width="0.8" stroke-linecap="round"/>
<text x="744" y="926.5" font-family="Helvetica, Arial, 'Liberation Sans', sans-serif" font-size="13.5" fill="#b45309" text-anchor="end" stroke="#ffffff" stroke-width="2.97" stroke-linejoin="round" paint-order="stroke" font-weight="bold">GAB-A (CA)</text>
<line x1="815" y1="937" x2="800" y2="925" stroke="#b45309" stroke-width="1.6" stroke-linecap="round"/>
<polyline points="780,905 780,780 780,530 778,530 778,249" fill="none" stroke="#b45309" stroke-width="2.4" stroke-linejoin="round" stroke-linecap="round" marker-end="url(#arrAmber)"/>
<rect x="775" y="775" width="10" height="10" fill="#1f2937" stroke="#1f2937" stroke-width="1"/>
<rect x="740" y="235" width="28" height="28" fill="#fff7ed" stroke="#b45309" stroke-width="2"/>
<line x1="743" y1="238" x2="765" y2="260" stroke="#b45309" stroke-width="0.8" stroke-linecap="round"/>
<line x1="765" y1="238" x2="743" y2="260" stroke="#b45309" stroke-width="0.8" stroke-linecap="round"/>
<text x="755" y="276" font-family="Helvetica, Arial, 'Liberation Sans', sans-serif" font-size="13.5" fill="#b45309" text-anchor="end" stroke="#ffffff" stroke-width="2.97" stroke-linejoin="round" paint-order="stroke" font-weight="bold">GAB-1 (CC)</text>
<polyline points="760,243 195,243 195,365" fill="none" stroke="#b45309" stroke-width="1.6" stroke-linejoin="round" stroke-linecap="round" marker-end="url(#arrAmber)"/>
<line x1="370" y1="243" x2="370" y2="248" stroke="#b45309" stroke-width="1.1" stroke-linecap="round" marker-end="url(#arrAmber)"/>
<line x1="495" y1="243" x2="495" y2="248" stroke="#b45309" stroke-width="1.1" stroke-linecap="round" marker-end="url(#arrAmber)"/>
<line x1="620" y1="243" x2="620" y2="248" stroke="#b45309" stroke-width="1.1" stroke-linecap="round" marker-end="url(#arrAmber)"/>
<circle cx="170" cy="380" r="14" fill="#ffffff" stroke="#b45309" stroke-width="1.5"/>
<path d="M170,380 l11,0 a5,5 0 0 1 -5.5,9 z" fill="#b45309" fill-opacity="0.5" stroke="none" transform="rotate(0 170 380)"/>
<path d="M170,380 l11,0 a5,5 0 0 1 -5.5,9 z" fill="#b45309" fill-opacity="0.5" stroke="none" transform="rotate(120 170 380)"/>
<path d="M170,380 l11,0 a5,5 0 0 1 -5.5,9 z" fill="#b45309" fill-opacity="0.5" stroke="none" transform="rotate(240 170 380)"/>
<text x="155" y="380" font-family="Helvetica, Arial, 'Liberation Sans', sans-serif" font-size="13.5" fill="#b45309" text-anchor="middle" stroke="#ffffff" stroke-width="2.97" stroke-linejoin="round" paint-order="stroke" transform="rotate(-90 155 380)">extractor</text>
<polyline points="760,263 760,402 846,402" fill="none" stroke="#b45309" stroke-width="1.5" stroke-linejoin="round" stroke-linecap="round" stroke-dasharray="6 4" marker-end="url(#arrAmber)"/>
<circle cx="470" cy="415" r="5" fill="#b45309" stroke="#b45309" stroke-width="1.5"/>
<text x="480" y="419" font-family="Helvetica, Arial, 'Liberation Sans', sans-serif" font-size="13.5" fill="#b45309" text-anchor="start" stroke="#ffffff" stroke-width="2.97" stroke-linejoin="round" paint-order="stroke">SHT31 T/HR a 1.5 m</text>
<line x1="895" y1="290" x2="768" y2="255" stroke="#b45309" stroke-width="1" stroke-linecap="round" stroke-dasharray="2 3"/>
<rect x="840" y="885" width="120" height="60" fill="#ffffff" stroke="#1f2937" stroke-width="1.5"/>
<rect x="844" y="889" width="112" height="52" fill="none" stroke="#1f2937" stroke-width="0.7"/>
<text x="900" y="904.5" font-family="Helvetica, Arial, 'Liberation Sans', sans-serif" font-size="13.5" fill="#1f2937" text-anchor="middle" stroke="#ffffff" stroke-width="2.97" stroke-linejoin="round" paint-order="stroke">mesa cosecha</text>
<text x="900" y="921" font-family="Helvetica, Arial, 'Liberation Sans', sans-serif" font-size="13.5" fill="#1f2937" text-anchor="middle" stroke="#ffffff" stroke-width="2.97" stroke-linejoin="round" paint-order="stroke">y empaque</text>
<text x="900" y="937.5" font-family="Helvetica, Arial, 'Liberation Sans', sans-serif" font-size="13.5" fill="#1f2937" text-anchor="middle" stroke="#ffffff" stroke-width="2.97" stroke-linejoin="round" paint-order="stroke">inox/polietileno</text>
<circle cx="1080" cy="850" r="22" fill="#ffffff" stroke="#1d4ed8" stroke-width="1.5"/>
<line x1="1085" y1="933" x2="1080" y2="872" stroke="#1d4ed8" stroke-width="1.2" stroke-linecap="round"/>
<text x="1050" y="816" font-family="Helvetica, Arial, 'Liberation Sans', sans-serif" font-size="12.75" fill="#1d4ed8" text-anchor="end" stroke="#ffffff" stroke-width="2.81" stroke-linejoin="round" paint-order="stroke">tina + lavamanos</text>
<rect x="870" y="810" width="35" height="30" fill="#ffffff" stroke="#1f2937" stroke-width="1.2"/>
<text x="887.5" y="853" font-family="Helvetica, Arial, 'Liberation Sans', sans-serif" font-size="12.75" fill="#1f2937" text-anchor="middle" stroke="#ffffff" stroke-width="2.81" stroke-linejoin="round" paint-order="stroke">hielera 45–50 L</text>
<line x1="750" y1="780" x2="1100" y2="780" stroke="#2e7d32" stroke-width="1.5" stroke-linecap="round" stroke-dasharray="2 4"/>
<line x1="750" y1="780" x2="750" y2="950" stroke="#2e7d32" stroke-width="1.5" stroke-linecap="round" stroke-dasharray="2 4"/>
<circle cx="155" cy="905" r="29" fill="#e8f5e9" stroke="#2e7d32" stroke-width="2"/>
<circle cx="155" cy="905" r="17.4" fill="none" stroke="#2e7d32" stroke-width="0.9" stroke-dasharray="3 2"/>
<text x="155" y="949" font-family="Helvetica, Arial, 'Liberation Sans', sans-serif" font-size="13.5" fill="#2e7d32" text-anchor="middle" stroke="#ffffff" stroke-width="2.97" stroke-linejoin="round" paint-order="stroke">composta</text>
<rect x="170" y="530" width="600" height="200" fill="none" stroke="#6b7280" stroke-width="1.2" stroke-dasharray="6 4"/>
<text x="470" y="635" font-family="Helvetica, Arial, 'Liberation Sans', sans-serif" font-size="14.25" fill="#6b7280" text-anchor="middle" stroke="#ffffff" stroke-width="3.14" stroke-linejoin="round" paint-order="stroke">ampliación Fase 2 (+2 m al sur): fachada sur atornillada, no soldada</text>
<line x1="170" y1="184" x2="170" y2="196" stroke="#1f2937" stroke-width="1" stroke-linecap="round"/>
<line x1="166" y1="194" x2="174" y2="186" stroke="#1f2937" stroke-width="1.2" stroke-linecap="round"/>
<line x1="770" y1="184" x2="770" y2="196" stroke="#1f2937" stroke-width="1" stroke-linecap="round"/>
<line x1="766" y1="194" x2="774" y2="186" stroke="#1f2937" stroke-width="1.2" stroke-linecap="round"/>
<line x1="170" y1="190" x2="770" y2="190" stroke="#1f2937" stroke-width="1" stroke-linecap="round"/>
<text x="470" y="186" font-family="Helvetica, Arial, 'Liberation Sans', sans-serif" font-size="13.5" fill="#1f2937" text-anchor="middle" stroke="#ffffff" stroke-width="2.97" stroke-linejoin="round" paint-order="stroke">6.00</text>
<line x1="134" y1="230" x2="146" y2="230" stroke="#1f2937" stroke-width="1" stroke-linecap="round"/>
<line x1="136" y1="234" x2="144" y2="226" stroke="#1f2937" stroke-width="1.2" stroke-linecap="round"/>
<line x1="134" y1="530" x2="146" y2="530" stroke="#1f2937" stroke-width="1" stroke-linecap="round"/>
<line x1="136" y1="534" x2="144" y2="526" stroke="#1f2937" stroke-width="1.2" stroke-linecap="round"/>
<line x1="140" y1="230" x2="140" y2="530" stroke="#1f2937" stroke-width="1" stroke-linecap="round"/>
<text x="136" y="380" font-family="Helvetica, Arial, 'Liberation Sans', sans-serif" font-size="13.5" fill="#1f2937" text-anchor="middle" stroke="#ffffff" stroke-width="2.97" stroke-linejoin="round" paint-order="stroke" transform="rotate(-90 136 380)">3.00</text>
<line x1="134" y1="150" x2="146" y2="150" stroke="#1f2937" stroke-width="1" stroke-linecap="round"/>
<line x1="136" y1="154" x2="144" y2="146" stroke="#1f2937" stroke-width="1.2" stroke-linecap="round"/>
<line x1="134" y1="230" x2="146" y2="230" stroke="#1f2937" stroke-width="1" stroke-linecap="round"/>
<line x1="136" y1="234" x2="144" y2="226" stroke="#1f2937" stroke-width="1.2" stroke-linecap="round"/>
<line x1="140" y1="150" x2="140" y2="230" stroke="#1f2937" stroke-width="1" stroke-linecap="round"/>
<text x="136" y="190" font-family="Helvetica, Arial, 'Liberation Sans', sans-serif" font-size="13.5" fill="#1f2937" text-anchor="middle" stroke="#ffffff" stroke-width="2.97" stroke-linejoin="round" paint-order="stroke" transform="rotate(-90 136 190)">0.80</text>
<line x1="110" y1="764" x2="110" y2="776" stroke="#1f2937" stroke-width="1" stroke-linecap="round"/>
<line x1="106" y1="774" x2="114" y2="766" stroke="#1f2937" stroke-width="1.2" stroke-linecap="round"/>
<line x1="170" y1="764" x2="170" y2="776" stroke="#1f2937" stroke-width="1" stroke-linecap="round"/>
<line x1="166" y1="774" x2="174" y2="766" stroke="#1f2937" stroke-width="1.2" stroke-linecap="round"/>
<line x1="110" y1="770" x2="170" y2="770" stroke="#1f2937" stroke-width="1" stroke-linecap="round"/>
<text x="140" y="766" font-family="Helvetica, Arial, 'Liberation Sans', sans-serif" font-size="13.5" fill="#1f2937" text-anchor="middle" stroke="#ffffff" stroke-width="2.97" stroke-linejoin="round" paint-order="stroke">0.60</text>
<line x1="734" y1="530" x2="746" y2="530" stroke="#1f2937" stroke-width="1" stroke-linecap="round"/>
<line x1="736" y1="534" x2="744" y2="526" stroke="#1f2937" stroke-width="1.2" stroke-linecap="round"/>
<line x1="734" y1="950" x2="746" y2="950" stroke="#1f2937" stroke-width="1" stroke-linecap="round"/>
<line x1="736" y1="954" x2="744" y2="946" stroke="#1f2937" stroke-width="1.2" stroke-linecap="round"/>
<line x1="740" y1="530" x2="740" y2="950" stroke="#1f2937" stroke-width="1" stroke-linecap="round"/>
<text x="736" y="740" font-family="Helvetica, Arial, 'Liberation Sans', sans-serif" font-size="13.5" fill="#1f2937" text-anchor="middle" stroke="#ffffff" stroke-width="2.97" stroke-linejoin="round" paint-order="stroke" transform="rotate(-90 736 740)">4.20 a la casa</text>
<line x1="770" y1="306" x2="770" y2="318" stroke="#1f2937" stroke-width="1" stroke-linecap="round"/>
<line x1="766" y1="316" x2="774" y2="308" stroke="#1f2937" stroke-width="1.2" stroke-linecap="round"/>
<line x1="860" y1="306" x2="860" y2="318" stroke="#1f2937" stroke-width="1" stroke-linecap="round"/>
<line x1="856" y1="316" x2="864" y2="308" stroke="#1f2937" stroke-width="1.2" stroke-linecap="round"/>
<line x1="770" y1="312" x2="860" y2="312" stroke="#1f2937" stroke-width="1" stroke-linecap="round"/>
<text x="815" y="308" font-family="Helvetica, Arial, 'Liberation Sans', sans-serif" font-size="12.75" fill="#1f2937" text-anchor="middle" stroke="#ffffff" stroke-width="2.81" stroke-linejoin="round" paint-order="stroke">0.90 paso</text>
<line x1="1044" y1="205" x2="1056" y2="205" stroke="#1f2937" stroke-width="1" stroke-linecap="round"/>
<line x1="1046" y1="209" x2="1054" y2="201" stroke="#1f2937" stroke-width="1.2" stroke-linecap="round"/>
<line x1="1044" y1="245" x2="1056" y2="245" stroke="#1f2937" stroke-width="1" stroke-linecap="round"/>
<line x1="1046" y1="249" x2="1054" y2="241" stroke="#1f2937" stroke-width="1.2" stroke-linecap="round"/>
<line x1="1050" y1="205" x2="1050" y2="245" stroke="#1f2937" stroke-width="1" stroke-linecap="round"/>
<text x="1046" y="225" font-family="Helvetica, Arial, 'Liberation Sans', sans-serif" font-size="12.75" fill="#1f2937" text-anchor="middle" stroke="#ffffff" stroke-width="2.81" stroke-linejoin="round" paint-order="stroke" transform="rotate(-90 1046 225)">0.40</text>
<text x="782" y="334" font-family="Helvetica, Arial, 'Liberation Sans', sans-serif" font-size="12.75" fill="#6b7280" text-anchor="start" stroke="#ffffff" stroke-width="2.81" stroke-linejoin="round" paint-order="stroke">puerta 0.9</text>
<circle cx="330" cy="495" r="9" fill="#ffffff" stroke="#1f2937" stroke-width="1.4"/>
<text x="330" y="498.5" font-family="Helvetica, Arial, 'Liberation Sans', sans-serif" font-size="14.25" fill="#1f2937" text-anchor="middle" stroke="#ffffff" stroke-width="3.14" stroke-linejoin="round" paint-order="stroke" font-weight="bold">1</text>
<line x1="520.7" y1="273" x2="555.7" y2="328" stroke="#2e7d32" stroke-width="0.8" stroke-linecap="round"/>
<circle cx="555.7" cy="328" r="9" fill="#ffffff" stroke="#2e7d32" stroke-width="1.4"/>
<text x="555.7" y="331.5" font-family="Helvetica, Arial, 'Liberation Sans', sans-serif" font-size="14.25" fill="#2e7d32" text-anchor="middle" stroke="#ffffff" stroke-width="3.14" stroke-linejoin="round" paint-order="stroke" font-weight="bold">2</text>
<line x1="925" y1="345" x2="835" y2="370" stroke="#1d4ed8" stroke-width="0.8" stroke-linecap="round"/>
<circle cx="835" cy="370" r="9" fill="#ffffff" stroke="#1d4ed8" stroke-width="1.4"/>
<text x="835" y="373.5" font-family="Helvetica, Arial, 'Liberation Sans', sans-serif" font-size="14.25" fill="#1d4ed8" text-anchor="middle" stroke="#ffffff" stroke-width="3.14" stroke-linejoin="round" paint-order="stroke" font-weight="bold">3</text>
<line x1="893" y1="172" x2="823" y2="172" stroke="#1d4ed8" stroke-width="0.8" stroke-linecap="round"/>
<circle cx="823" cy="172" r="9" fill="#ffffff" stroke="#1d4ed8" stroke-width="1.4"/>
<text x="823" y="175.5" font-family="Helvetica, Arial, 'Liberation Sans', sans-serif" font-size="14.25" fill="#1d4ed8" text-anchor="middle" stroke="#ffffff" stroke-width="3.14" stroke-linejoin="round" paint-order="stroke" font-weight="bold">4</text>
<line x1="866" y1="402" x2="1021" y2="402" stroke="#1d4ed8" stroke-width="0.8" stroke-linecap="round"/>
<circle cx="1021" cy="402" r="9" fill="#ffffff" stroke="#1d4ed8" stroke-width="1.4"/>
<text x="1021" y="405.5" font-family="Helvetica, Arial, 'Liberation Sans', sans-serif" font-size="14.25" fill="#1d4ed8" text-anchor="middle" stroke="#ffffff" stroke-width="3.14" stroke-linejoin="round" paint-order="stroke" font-weight="bold">5</text>
<line x1="754" y1="210" x2="699" y2="210" stroke="#b45309" stroke-width="0.8" stroke-linecap="round"/>
<circle cx="699" cy="210" r="9" fill="#ffffff" stroke="#b45309" stroke-width="1.4"/>
<text x="699" y="213.5" font-family="Helvetica, Arial, 'Liberation Sans', sans-serif" font-size="14.25" fill="#b45309" text-anchor="middle" stroke="#ffffff" stroke-width="3.14" stroke-linejoin="round" paint-order="stroke" font-weight="bold">6</text>
<line x1="780" y1="875" x2="720" y2="875" stroke="#b45309" stroke-width="0.8" stroke-linecap="round"/>
<circle cx="720" cy="875" r="9" fill="#ffffff" stroke="#b45309" stroke-width="1.4"/>
<text x="720" y="878.5" font-family="Helvetica, Arial, 'Liberation Sans', sans-serif" font-size="14.25" fill="#b45309" text-anchor="middle" stroke="#ffffff" stroke-width="3.14" stroke-linejoin="round" paint-order="stroke" font-weight="bold">7</text>
<line x1="780" y1="730" x2="835" y2="730" stroke="#b45309" stroke-width="0.8" stroke-linecap="round"/>
<circle cx="835" cy="730" r="9" fill="#ffffff" stroke="#b45309" stroke-width="1.4"/>
<text x="835" y="733.5" font-family="Helvetica, Arial, 'Liberation Sans', sans-serif" font-size="14.25" fill="#b45309" text-anchor="middle" stroke="#ffffff" stroke-width="3.14" stroke-linejoin="round" paint-order="stroke" font-weight="bold">8</text>
<line x1="680" y1="923" x2="590" y2="873" stroke="#b45309" stroke-width="0.8" stroke-linecap="round"/>
<circle cx="590" cy="873" r="9" fill="#ffffff" stroke="#b45309" stroke-width="1.4"/>
<text x="590" y="876.5" font-family="Helvetica, Arial, 'Liberation Sans', sans-serif" font-size="14.25" fill="#b45309" text-anchor="middle" stroke="#ffffff" stroke-width="3.14" stroke-linejoin="round" paint-order="stroke" font-weight="bold">9</text>
<line x1="1095" y1="350" x2="1045" y2="390" stroke="#1d4ed8" stroke-width="0.8" stroke-linecap="round"/>
<circle cx="1045" cy="390" r="9" fill="#ffffff" stroke="#1d4ed8" stroke-width="1.4"/>
<text x="1045" y="393.5" font-family="Helvetica, Arial, 'Liberation Sans', sans-serif" font-size="14.25" fill="#1d4ed8" text-anchor="middle" stroke="#ffffff" stroke-width="3.14" stroke-linejoin="round" paint-order="stroke" font-weight="bold">10</text>
<line x1="850" y1="885" x2="825" y2="830" stroke="#1f2937" stroke-width="0.8" stroke-linecap="round"/>
<circle cx="825" cy="830" r="9" fill="#ffffff" stroke="#1f2937" stroke-width="1.4"/>
<text x="825" y="833.5" font-family="Helvetica, Arial, 'Liberation Sans', sans-serif" font-size="14.25" fill="#1f2937" text-anchor="middle" stroke="#ffffff" stroke-width="3.14" stroke-linejoin="round" paint-order="stroke" font-weight="bold">11</text>
<line x1="185" y1="860" x2="225" y2="860" stroke="#2e7d32" stroke-width="0.8" stroke-linecap="round"/>
<circle cx="225" cy="860" r="9" fill="#ffffff" stroke="#2e7d32" stroke-width="1.4"/>
<text x="225" y="863.5" font-family="Helvetica, Arial, 'Liberation Sans', sans-serif" font-size="14.25" fill="#2e7d32" text-anchor="middle" stroke="#ffffff" stroke-width="3.14" stroke-linejoin="round" paint-order="stroke" font-weight="bold">12</text>
<line x1="170" y1="380" x2="210" y2="420" stroke="#b45309" stroke-width="0.8" stroke-linecap="round"/>
<circle cx="210" cy="420" r="9" fill="#ffffff" stroke="#b45309" stroke-width="1.4"/>
<text x="210" y="423.5" font-family="Helvetica, Arial, 'Liberation Sans', sans-serif" font-size="14.25" fill="#b45309" text-anchor="middle" stroke="#ffffff" stroke-width="3.14" stroke-linejoin="round" paint-order="stroke" font-weight="bold">13</text>
<circle cx="270" cy="348" r="9" fill="#ffffff" stroke="#1f2937" stroke-width="1.4"/>
<text x="270" y="351.5" font-family="Helvetica, Arial, 'Liberation Sans', sans-serif" font-size="14.25" fill="#1f2937" text-anchor="middle" stroke="#ffffff" stroke-width="3.14" stroke-linejoin="round" paint-order="stroke" font-weight="bold">14</text>
</svg>
